{
  "accessors": [
    {
      "bufferView": 2,
      "componentType": 5126,
      "count": 25,
      "max": [
        0.6970790028572083,
        -0.2904930114746094,
        1.0
      ],
      "min": [
        -0.6970790028572083,
        -0.2904930114746094,
        -1.0
      ],
      "type": "VEC3"
    },
    {
      "bufferView": 2,
      "byteOffset": 300,
      "componentType": 5126,
      "count": 25,
      "max": [
        0.0,
        1.0,
        6.123230292458899e-17
      ],
      "min": [
        0.0,
        1.0,
        6.123230292458899e-17
      ],
      "type": "VEC3"
    },
    {
      "bufferView": 3,
      "componentType": 5126,
      "count": 25,
      "max": [
        1.0,
        0.0,
        0.0,
        1.0
      ],
      "min": [
        1.0,
        0.0,
        0.0,
        1.0
      ],
      "type": "VEC4"
    },
    {
      "bufferView": 1,
      "componentType": 5126,
      "count": 25,
      "max": [
        0.8485400080680847,
        1.0
      ],
      "min": [
        0.15146000683307648,
        0.0
      ],
      "type": "VEC2"
    },
    {
      "bufferView": 0,
      "componentType": 5125,
      "count": 96,
      "type": "SCALAR"
    },
    {
      "bufferView": 2,
      "byteOffset": 600,
      "componentType": 5126,
      "count": 65532,
      "max": [
        0.29408299922943115,
        -0.06627760082483292,
        0.592104971408844
      ],
      "min": [
        -0.29408299922943115,
        -0.2910049855709076,
        -0.5079100131988525
      ],
      "type": "VEC3"
    },
    {
      "bufferView": 2,
      "byteOffset": 786984,
      "componentType": 5126,
      "count": 65532,
      "max": [
        1.0,
        0.9999997615814209,
        1.0
      ],
      "min": [
        -1.0,
        -1.0,
        -0.9999997615814209
      ],
      "type": "VEC3"
    },
    {
      "bufferView": 3,
      "byteOffset": 400,
      "componentType": 5126,
      "count": 65532,
      "max": [
        1.0,
        1.0,
        0.9999997615814209,
        1.0
      ],
      "min": [
        -1.0,
        -1.0,
        -1.0,
        -1.0
      ],
      "type": "VEC4"
    },
    {
      "bufferView": 1,
      "byteOffset": 200,
      "componentType": 5126,
      "count": 65532,
      "max": [
        0.9968230128288269,
        0.9990000128746033
      ],
      "min": [
        0.0010000000474974513,
        0.0010000000474974513
      ],
      "type": "VEC2"
    },
    {
      "bufferView": 0,
      "byteOffset": 384,
      "componentType": 5125,
      "count": 308901,
      "type": "SCALAR"
    },
    {
      "bufferView": 2,
      "byteOffset": 1573368,
      "componentType": 5126,
      "count": 65532,
      "max": [
        0.29408299922943115,
        -0.06708689779043198,
        0.592104971408844
      ],
      "min": [
        0.16863200068473816,
        -0.2910049855709076,
        -0.6014090180397034
      ],
      "type": "VEC3"
    },
    {
      "bufferView": 2,
      "byteOffset": 2359752,
      "componentType": 5126,
      "count": 65532,
      "max": [
        1.0,
        0.9999948740005493,
        0.9999951124191284
      ],
      "min": [
        -1.0,
        -0.9999973773956299,
        -0.9999993443489075
      ],
      "type": "VEC3"
    },
    {
      "bufferView": 3,
      "byteOffset": 1048912,
      "componentType": 5126,
      "count": 65532,
      "max": [
        1.0,
        1.0,
        1.0,
        1.0
      ],
      "min": [
        -1.0,
        -0.9999999403953552,
        -1.0,
        -1.0
      ],
      "type": "VEC4"
    },
    {
      "bufferView": 1,
      "byteOffset": 524456,
      "componentType": 5126,
      "count": 65532,
      "max": [
        0.9970120191574097,
        0.9977539777755737
      ],
      "min": [
        0.0010000000474974513,
        0.0010000000474974513
      ],
      "type": "VEC2"
    },
    {
      "bufferView": 0,
      "byteOffset": 1235988,
      "componentType": 5125,
      "count": 308787,
      "type": "SCALAR"
    },
    {
      "bufferView": 2,
      "byteOffset": 3146136,
      "componentType": 5126,
      "count": 65532,
      "max": [
        0.29408299922943115,
        -0.06627760082483292,
        0.24721699953079224
      ],
      "min": [
        -0.29408299922943115,
        -0.2910049855709076,
        -0.6014090180397034
      ],
      "type": "VEC3"
    },
    {
      "bufferView": 2,
      "byteOffset": 3932520,
      "componentType": 5126,
      "count": 65532,
      "max": [
        1.0,
        0.9999997615814209,
        1.0
      ],
      "min": [
        -1.0,
        -1.0,
        -0.9999997615814209
      ],
      "type": "VEC3"
    },
    {
      "bufferView": 3,
      "byteOffset": 2097424,
      "componentType": 5126,
      "count": 65532,
      "max": [
        1.0,
        0.9999999403953552,
        1.0,
        1.0
      ],
      "min": [
        -1.0,
        -1.0,
        -1.0,
        -1.0
      ],
      "type": "VEC4"
    },
    {
      "bufferView": 1,
      "byteOffset": 1048712,
      "componentType": 5126,
      "count": 65532,
      "max": [
        0.9970120191574097,
        0.9990000128746033
      ],
      "min": [
        0.0010000000474974513,
        0.0010000000474974513
      ],
      "type": "VEC2"
    },
    {
      "bufferView": 0,
      "byteOffset": 2471136,
      "componentType": 5125,
      "count": 307806,
      "type": "SCALAR"
    },
    {
      "bufferView": 2,
      "byteOffset": 4718904,
      "componentType": 5126,
      "count": 29816,
      "max": [
        -0.16863200068473816,
        -0.2575570046901703,
        0.3718940019607544
      ],
      "min": [
        -0.29408299922943115,
        -0.2910049855709076,
        -0.3346700072288513
      ],
      "type": "VEC3"
    },
    {
      "bufferView": 2,
      "byteOffset": 5076696,
      "componentType": 5126,
      "count": 29816,
      "max": [
        1.0,
        0.999956488609314,
        0.9999948740005493
      ],
      "min": [
        -1.0,
        -0.9999426603317261,
        -0.9999426603317261
      ],
      "type": "VEC3"
    },
    {
      "bufferView": 3,
      "byteOffset": 3145936,
      "componentType": 5126,
      "count": 29816,
      "max": [
        1.0,
        1.0,
        0.9999961256980896,
        1.0
      ],
      "min": [
        -1.0,
        -0.9999999403953552,
        -0.9999933242797852,
        -1.0
      ],
      "type": "VEC4"
    },
    {
      "bufferView": 1,
      "byteOffset": 1572968,
      "componentType": 5126,
      "count": 29816,
      "max": [
        0.9968230128288269,
        0.9977539777755737
      ],
      "min": [
        0.0010000000474974513,
        0.0010000000474974513
      ],
      "type": "VEC2"
    },
    {
      "bufferView": 0,
      "byteOffset": 3702360,
      "componentType": 5125,
      "count": 140406,
      "type": "SCALAR"
    },
    {
      "bufferView": 2,
      "byteOffset": 5434488,
      "componentType": 5126,
      "count": 65532,
      "max": [
        0.2713469862937927,
        -0.07243870198726654,
        0.580551028251648
      ],
      "min": [
        -0.28059399127960205,
        -0.28011301159858704,
        -0.6010779738426208
      ],
      "type": "VEC3"
    },
    {
      "bufferView": 2,
      "byteOffset": 6220872,
      "componentType": 5126,
      "count": 65532,
      "max": [
        1.0,
        1.0,
        1.0
      ],
      "min": [
        -1.0,
        -1.0,
        -1.0
      ],
      "type": "VEC3"
    },
    {
      "bufferView": 3,
      "byteOffset": 3622992,
      "componentType": 5126,
      "count": 65532,
      "max": [
        1.0,
        1.0,
        1.0,
        1.0
      ],
      "min": [
        -1.0,
        -1.0,
        -1.0,
        -1.0
      ],
      "type": "VEC4"
    },
    {
      "bufferView": 1,
      "byteOffset": 1811496,
      "componentType": 5126,
      "count": 65532,
      "max": [
        0.996737003326416,
        0.996999979019165
      ],
      "min": [
        0.003000000026077032,
        0.003000000026077032
      ],
      "type": "VEC2"
    },
    {
      "bufferView": 0,
      "byteOffset": 4263984,
      "componentType": 5125,
      "count": 205035,
      "type": "SCALAR"
    },
    {
      "bufferView": 2,
      "byteOffset": 7007256,
      "componentType": 5126,
      "count": 32189,
      "max": [
        0.28059399127960205,
        -0.07243870198726654,
        0.580551028251648
      ],
      "min": [
        -0.2713469862937927,
        -0.28011301159858704,
        -0.6010779738426208
      ],
      "type": "VEC3"
    },
    {
      "bufferView": 2,
      "byteOffset": 7393524,
      "componentType": 5126,
      "count": 32189,
      "max": [
        1.0,
        1.0,
        1.0
      ],
      "min": [
        -1.0,
        -1.0,
        -1.0
      ],
      "type": "VEC3"
    },
    {
      "bufferView": 3,
      "byteOffset": 4671504,
      "componentType": 5126,
      "count": 32189,
      "max": [
        1.0,
        1.0,
        1.0,
        1.0
      ],
      "min": [
        -1.0,
        -1.0,
        -1.0,
        -1.0
      ],
      "type": "VEC4"
    },
    {
      "bufferView": 1,
      "byteOffset": 2335752,
      "componentType": 5126,
      "count": 32189,
      "max": [
        0.996999979019165,
        0.996737003326416
      ],
      "min": [
        0.003000000026077032,
        0.003000000026077032
      ],
      "type": "VEC2"
    },
    {
      "bufferView": 0,
      "byteOffset": 5084124,
      "componentType": 5125,
      "count": 101313,
      "type": "SCALAR"
    },
    {
      "bufferView": 2,
      "byteOffset": 7779792,
      "componentType": 5126,
      "count": 14102,
      "max": [
        0.1793230026960373,
        0.2910049855709076,
        0.6605319976806641
      ],
      "min": [
        -0.1793230026960373,
        0.005555749870836735,
        -0.2738800048828125
      ],
      "type": "VEC3"
    },
    {
      "bufferView": 2,
      "byteOffset": 7949016,
      "componentType": 5126,
      "count": 14102,
      "max": [
        1.0,
        1.0,
        1.0
      ],
      "min": [
        -1.0,
        -1.0,
        -1.0
      ],
      "type": "VEC3"
    },
    {
      "bufferView": 3,
      "byteOffset": 5186528,
      "componentType": 5126,
      "count": 14102,
      "max": [
        1.0,
        1.0,
        1.0,
        1.0
      ],
      "min": [
        -1.0,
        -1.0,
        -1.0,
        -1.0
      ],
      "type": "VEC4"
    },
    {
      "bufferView": 1,
      "byteOffset": 2593264,
      "componentType": 5126,
      "count": 14102,
      "max": [
        0.9877150058746338,
        0.9980000257492065
      ],
      "min": [
        0.0020000000949949026,
        0.0020000000949949026
      ],
      "type": "VEC2"
    },
    {
      "bufferView": 0,
      "byteOffset": 5489376,
      "componentType": 5125,
      "count": 46656,
      "type": "SCALAR"
    },
    {
      "bufferView": 2,
      "byteOffset": 8118240,
      "componentType": 5126,
      "count": 65533,
      "max": [
        0.2889559864997864,
        0.016570499166846275,
        0.6003170013427734
      ],
      "min": [
        -0.28905999660491943,
        -0.1919810026884079,
        -0.5928530097007751
      ],
      "type": "VEC3"
    },
    {
      "bufferView": 2,
      "byteOffset": 8904636,
      "componentType": 5126,
      "count": 65533,
      "max": [
        1.0,
        1.0,
        1.0
      ],
      "min": [
        -1.0,
        -1.0,
        -1.0
      ],
      "type": "VEC3"
    },
    {
      "bufferView": 3,
      "byteOffset": 5412160,
      "componentType": 5126,
      "count": 65533,
      "max": [
        1.0,
        1.0,
        1.0,
        1.0
      ],
      "min": [
        -1.0,
        -1.0,
        -1.0,
        -1.0
      ],
      "type": "VEC4"
    },
    {
      "bufferView": 1,
      "byteOffset": 2706080,
      "componentType": 5126,
      "count": 65533,
      "max": [
        0.9973329901695251,
        0.9975799918174744
      ],
      "min": [
        0.0066710300743579865,
        0.0020000000949949026
      ],
      "type": "VEC2"
    },
    {
      "bufferView": 0,
      "byteOffset": 5676000,
      "componentType": 5125,
      "count": 213621,
      "type": "SCALAR"
    },
    {
      "bufferView": 2,
      "byteOffset": 9691032,
      "componentType": 5126,
      "count": 37915,
      "max": [
        0.29027101397514343,
        0.02073029987514019,
        0.6003170013427734
      ],
      "min": [
        -0.29027101397514343,
        -0.21626399457454681,
        -0.613493025302887
      ],
      "type": "VEC3"
    },
    {
      "bufferView": 2,
      "byteOffset": 10146012,
      "componentType": 5126,
      "count": 37915,
      "max": [
        1.0,
        1.0,
        1.0
      ],
      "min": [
        -1.0,
        -1.0,
        -1.0
      ],
      "type": "VEC3"
    },
    {
      "bufferView": 3,
      "byteOffset": 6460688,
      "componentType": 5126,
      "count": 37915,
      "max": [
        1.0,
        1.0,
        1.0,
        1.0
      ],
      "min": [
        -1.0,
        -1.0,
        -1.0,
        -1.0
      ],
      "type": "VEC4"
    },
    {
      "bufferView": 1,
      "byteOffset": 3230344,
      "componentType": 5126,
      "count": 37915,
      "max": [
        0.9971190094947815,
        0.9980000257492065
      ],
      "min": [
        0.0020000000949949026,
        0.0020000000949949026
      ],
      "type": "VEC2"
    },
    {
      "bufferView": 0,
      "byteOffset": 6530484,
      "componentType": 5125,
      "count": 117618,
      "type": "SCALAR"
    }
  ],
  "asset": {
    "extras": {
      "author": "Comrade1280 (https://sketchfab.com/comrade1280)",
      "license": "CC-BY-4.0 (http://creativecommons.org/licenses/by/4.0/)",
      "source": "https://sketchfab.com/3d-models/kv-2-heavy-tank-1940-ba8b84d78c0a42038cf2eaa4210ef296",
      "title": "KV-2 heavy tank 1940"
    },
    "generator": "Sketchfab-14.70.0",
    "version": "2.0"
  },
  "bufferViews": [
    {
      "buffer": 0,
      "byteLength": 7000956,
      "name": "floatBufferViews",
      "target": 34963
    },
    {
      "buffer": 0,
      "byteLength": 3533664,
      "byteOffset": 7000956,
      "byteStride": 8,
      "name": "floatBufferViews",
      "target": 34962
    },
    {
      "buffer": 0,
      "byteLength": 10600992,
      "byteOffset": 10534620,
      "byteStride": 12,
      "name": "floatBufferViews",
      "target": 34962
    },
    {
      "buffer": 0,
      "byteLength": 7067328,
      "byteOffset": 21135612,
      "byteStride": 16,
      "name": "floatBufferViews",
      "target": 34962
    }
  ],
  "buffers": [
    {
      "byteLength": 28202940,
      "uri": "scene.bin"
    }
  ],
  "extensionsUsed": [
    "KHR_materials_specular"
  ],
  "images": [
    {
      "uri": "textures/hull_baseColor.jpeg"
    },
    {
      "uri": "textures/hull_metallicRoughness.png"
    },
    {
      "uri": "textures/hull_normal.jpeg"
    },
    {
      "uri": "textures/turret_baseColor.jpeg"
    },
    {
      "uri": "textures/turret_metallicRoughness.png"
    },
    {
      "uri": "textures/turret_normal.jpeg"
    },
    {
      "uri": "textures/wheels_baseColor.jpeg"
    },
    {
      "uri": "textures/wheels_metallicRoughness.png"
    },
    {
      "uri": "textures/wheels_normal.jpeg"
    },
    {
      "uri": "textures/track_baseColor.jpeg"
    },
    {
      "uri": "textures/track_metallicRoughness.png"
    },
    {
      "uri": "textures/track_normal.jpeg"
    },
    {
      "uri": "textures/floor_baseColor.jpeg"
    },
    {
      "uri": "textures/floor_metallicRoughness.png"
    },
    {
      "uri": "textures/floor_normal.jpeg"
    }
  ],
  "materials": [
    {
      "extensions": {
        "KHR_materials_specular": {
          "specularColorFactor": [
            1.0,
            1.0,
            1.0
          ],
          "specularFactor": 0.49561737804878053
        }
      },
      "name": "hull",
      "normalTexture": {
        "index": 2
      },
      "occlusionTexture": {
        "index": 1
      },
      "pbrMetallicRoughness": {
        "baseColorTexture": {
          "index": 0
        },
        "metallicRoughnessTexture": {
          "index": 1
        }
      }
    },
    {
      "extensions": {
        "KHR_materials_specular": {
          "specularColorFactor": [
            1.0,
            1.0,
            1.0
          ],
          "specularFactor": 0.483422256097561
        }
      },
      "name": "turret",
      "normalTexture": {
        "index": 5
      },
      "occlusionTexture": {
        "index": 4
      },
      "pbrMetallicRoughness": {
        "baseColorTexture": {
          "index": 3
        },
        "metallicRoughnessTexture": {
          "index": 4
        }
      }
    },
    {
      "extensions": {
        "KHR_materials_specular": {
          "specularColorFactor": [
            1.0,
            1.0,
            1.0
          ],
          "specularFactor": 0.3797637195121951
        }
      },
      "name": "wheels",
      "normalTexture": {
        "index": 8
      },
      "occlusionTexture": {
        "index": 7
      },
      "pbrMetallicRoughness": {
        "baseColorTexture": {
          "index": 6
        },
        "metallicRoughnessTexture": {
          "index": 7
        }
      }
    },
    {
      "extensions": {
        "KHR_materials_specular": {
          "specularColorFactor": [
            1.0,
            1.0,
            1.0
          ],
          "specularFactor": 0.2029344512195122
        }
      },
      "name": "track",
      "normalTexture": {
        "index": 11
      },
      "occlusionTexture": {
        "index": 10
      },
      "pbrMetallicRoughness": {
        "baseColorTexture": {
          "index": 9
        },
        "metallicRoughnessTexture": {
          "index": 10
        }
      }
    },
    {
      "doubleSided": true,
      "extensions": {
        "KHR_materials_specular": {
          "specularColorFactor": [
            1.0,
            1.0,
            1.0
          ],
          "specularFactor": 0.4407393292682927
        }
      },
      "name": "floor",
      "normalTexture": {
        "index": 14
      },
      "occlusionTexture": {
        "index": 13
      },
      "pbrMetallicRoughness": {
        "baseColorTexture": {
          "index": 12
        },
        "metallicRoughnessTexture": {
          "index": 13
        }
      }
    }
  ],
  "meshes": [
    {
      "name": "defaultMaterial",
      "primitives": [
        {
          "attributes": {
            "NORMAL": 1,
            "POSITION": 0,
            "TANGENT": 2,
            "TEXCOORD_0": 3
          },
          "indices": 4,
          "material": 4,
          "mode": 4
        }
      ]
    },
    {
      "name": "defaultMaterial",
      "primitives": [
        {
          "attributes": {
            "NORMAL": 6,
            "POSITION": 5,
            "TANGENT": 7,
            "TEXCOORD_0": 8
          },
          "indices": 9,
          "material": 3,
          "mode": 4
        }
      ]
    },
    {
      "name": "defaultMaterial",
      "primitives": [
        {
          "attributes": {
            "NORMAL": 11,
            "POSITION": 10,
            "TANGENT": 12,
            "TEXCOORD_0": 13
          },
          "indices": 14,
          "material": 3,
          "mode": 4
        }
      ]
    },
    {
      "name": "defaultMaterial",
      "primitives": [
        {
          "attributes": {
            "NORMAL": 16,
            "POSITION": 15,
            "TANGENT": 17,
            "TEXCOORD_0": 18
          },
          "indices": 19,
          "material": 3,
          "mode": 4
        }
      ]
    },
    {
      "name": "defaultMaterial",
      "primitives": [
        {
          "attributes": {
            "NORMAL": 21,
            "POSITION": 20,
            "TANGENT": 22,
            "TEXCOORD_0": 23
          },
          "indices": 24,
          "material": 3,
          "mode": 4
        }
      ]
    },
    {
      "name": "defaultMaterial",
      "primitives": [
        {
          "attributes": {
            "NORMAL": 26,
            "POSITION": 25,
            "TANGENT": 27,
            "TEXCOORD_0": 28
          },
          "indices": 29,
          "material": 2,
          "mode": 4
        }
      ]
    },
    {
      "name": "defaultMaterial",
      "primitives": [
        {
          "attributes": {
            "NORMAL": 31,
            "POSITION": 30,
            "TANGENT": 32,
            "TEXCOORD_0": 33
          },
          "indices": 34,
          "material": 2,
          "mode": 4
        }
      ]
    },
    {
      "name": "defaultMaterial",
      "primitives": [
        {
          "attributes": {
            "NORMAL": 36,
            "POSITION": 35,
            "TANGENT": 37,
            "TEXCOORD_0": 38
          },
          "indices": 39,
          "material": 1,
          "mode": 4
        }
      ]
    },
    {
      "name": "defaultMaterial",
      "primitives": [
        {
          "attributes": {
            "NORMAL": 41,
            "POSITION": 40,
            "TANGENT": 42,
            "TEXCOORD_0": 43
          },
          "indices": 44,
          "material": 0,
          "mode": 4
        }
      ]
    },
    {
      "name": "defaultMaterial",
      "primitives": [
        {
          "attributes": {
            "NORMAL": 46,
            "POSITION": 45,
            "TANGENT": 47,
            "TEXCOORD_0": 48
          },
          "indices": 49,
          "material": 0,
          "mode": 4
        }
      ]
    }
  ],
  "nodes": [
    {
      "children": [
        1
      ],
      "matrix": [
        1.0,
        0.0,
        0.0,
        0.0,
        0.0,
        2.220446049250313e-16,
        -1.0,
        0.0,
        0.0,
        1.0,
        2.220446049250313e-16,
        0.0,
        0.0,
        0.0,
        0.0,
        1.0
      ],
      "name": "Sketchfab_model"
    },
    {
      "children": [
        2,
        4,
        9,
        12,
        14
      ],
      "matrix": [
        1.0,
        0.0,
        0.0,
        0.0,
        0.0,
        -4.371139006309477e-08,
        0.999999999999999,
        0.0,
        0.0,
        -0.999999999999999,
        -4.371139006309477e-08,
        0.0,
        0.0,
        0.0,
        0.0,
        1.0
      ],
      "name": "Collada visual scene group"
    },
    {
      "children": [
        3
      ],
      "name": "Plane001"
    },
    {
      "mesh": 0,
      "name": "defaultMaterial"
    },
    {
      "children": [
        5,
        6,
        7,
        8
      ],
      "name": "tracks"
    },
    {
      "mesh": 1,
      "name": "defaultMaterial"
    },
    {
      "mesh": 2,
      "name": "defaultMaterial"
    },
    {
      "mesh": 3,
      "name": "defaultMaterial"
    },
    {
      "mesh": 4,
      "name": "defaultMaterial"
    },
    {
      "children": [
        10,
        11
      ],
      "name": "wheels"
    },
    {
      "mesh": 5,
      "name": "defaultMaterial"
    },
    {
      "mesh": 6,
      "name": "defaultMaterial"
    },
    {
      "children": [
        13
      ],
      "name": "turret"
    },
    {
      "mesh": 7,
      "name": "defaultMaterial"
    },
    {
      "children": [
        15,
        16
      ],
      "name": "hull"
    },
    {
      "mesh": 8,
      "name": "defaultMaterial"
    },
    {
      "mesh": 9,
      "name": "defaultMaterial"
    }
  ],
  "samplers": [
    {
      "magFilter": 9729,
      "minFilter": 9987,
      "wrapS": 10497,
      "wrapT": 10497
    }
  ],
  "scene": 0,
  "scenes": [
    {
      "name": "Sketchfab_Scene",
      "nodes": [
        0
      ]
    }
  ],
  "textures": [
    {
      "sampler": 0,
      "source": 0
    },
    {
      "sampler": 0,
      "source": 1
    },
    {
      "sampler": 0,
      "source": 2
    },
    {
      "sampler": 0,
      "source": 3
    },
    {
      "sampler": 0,
      "source": 4
    },
    {
      "sampler": 0,
      "source": 5
    },
    {
      "sampler": 0,
      "source": 6
    },
    {
      "sampler": 0,
      "source": 7
    },
    {
      "sampler": 0,
      "source": 8
    },
    {
      "sampler": 0,
      "source": 9
    },
    {
      "sampler": 0,
      "source": 10
    },
    {
      "sampler": 0,
      "source": 11
    },
    {
      "sampler": 0,
      "source": 12
    },
    {
      "sampler": 0,
      "source": 13
    },
    {
      "sampler": 0,
      "source": 14
    }
  ]
}
