{
  "accessors": [
    {
      "bufferView": 2,
      "componentType": 5126,
      "count": 10509,
      "max": [
        4.725852012634277,
        18.839670181274414,
        4.406594276428223
      ],
      "min": [
        -1.5134505033493042,
        -29.05918312072754,
        -8.45549201965332
      ],
      "type": "VEC3"
    },
    {
      "bufferView": 2,
      "byteOffset": 126108,
      "componentType": 5126,
      "count": 10509,
      "max": [
        1.0,
        1.0,
        1.0
      ],
      "min": [
        -1.0,
        -1.0,
        -1.0
      ],
      "type": "VEC3"
    },
    {
      "bufferView": 3,
      "componentType": 5126,
      "count": 10509,
      "max": [
        1.0,
        1.0,
        1.0,
        1.0
      ],
      "min": [
        -1.0,
        -1.0,
        -1.0,
        -1.0
      ],
      "type": "VEC4"
    },
    {
      "bufferView": 1,
      "componentType": 5126,
      "count": 10509,
      "max": [
        1.9978656768798828,
        0.9977324604988098
      ],
      "min": [
        0.002267739735543728,
        0.00389707088470459
      ],
      "type": "VEC2"
    },
    {
      "bufferView": 0,
      "componentType": 5125,
      "count": 45744,
      "type": "SCALAR"
    },
    {
      "bufferView": 2,
      "byteOffset": 252216,
      "componentType": 5126,
      "count": 408,
      "max": [
        12.824432373046875,
        -12.124072074890137,
        5.039941787719727
      ],
      "min": [
        12.216720581054688,
        -12.656288146972656,
        1.4723241329193115
      ],
      "type": "VEC3"
    },
    {
      "bufferView": 2,
      "byteOffset": 257112,
      "componentType": 5126,
      "count": 408,
      "max": [
        1.0,
        1.0,
        1.0
      ],
      "min": [
        -1.0,
        -1.0,
        -1.0
      ],
      "type": "VEC3"
    },
    {
      "bufferView": 3,
      "byteOffset": 168144,
      "componentType": 5126,
      "count": 408,
      "max": [
        1.0,
        1.0,
        1.0,
        1.0
      ],
      "min": [
        -1.0,
        -1.0,
        -0.9994807243347168,
        -1.0
      ],
      "type": "VEC4"
    },
    {
      "bufferView": 1,
      "byteOffset": 84072,
      "componentType": 5126,
      "count": 408,
      "max": [
        1.9660661220550537,
        0.9977322816848755
      ],
      "min": [
        0.24054677784442902,
        0.005580902099609375
      ],
      "type": "VEC2"
    },
    {
      "bufferView": 0,
      "byteOffset": 182976,
      "componentType": 5125,
      "count": 1212,
      "type": "SCALAR"
    },
    {
      "bufferView": 2,
      "byteOffset": 262008,
      "componentType": 5126,
      "count": 768,
      "max": [
        13.22653865814209,
        -11.932371139526367,
        3.7276697158813477
      ],
      "min": [
        11.803903579711914,
        -12.363917350769043,
        2.1667885780334473
      ],
      "type": "VEC3"
    },
    {
      "bufferView": 2,
      "byteOffset": 271224,
      "componentType": 5126,
      "count": 768,
      "max": [
        1.0,
        1.0,
        1.0
      ],
      "min": [
        -1.0,
        -1.0,
        -1.0
      ],
      "type": "VEC3"
    },
    {
      "bufferView": 3,
      "byteOffset": 174672,
      "componentType": 5126,
      "count": 768,
      "max": [
        1.0,
        1.0,
        1.0,
        1.0
      ],
      "min": [
        -1.0,
        -1.0,
        -1.0,
        -1.0
      ],
      "type": "VEC4"
    },
    {
      "bufferView": 1,
      "byteOffset": 87336,
      "componentType": 5126,
      "count": 768,
      "max": [
        1.9212610721588135,
        0.9977322816848755
      ],
      "min": [
        0.016929160803556442,
        0.014288485050201416
      ],
      "type": "VEC2"
    },
    {
      "bufferView": 0,
      "byteOffset": 187824,
      "componentType": 5125,
      "count": 3204,
      "type": "SCALAR"
    },
    {
      "bufferView": 2,
      "byteOffset": 280440,
      "componentType": 5126,
      "count": 2565,
      "max": [
        -6.245157718658447,
        -5.918336391448975,
        1.683450698852539
      ],
      "min": [
        -10.408864974975586,
        -46.4204216003418,
        -2.4802558422088623
      ],
      "type": "VEC3"
    },
    {
      "bufferView": 2,
      "byteOffset": 311220,
      "componentType": 5126,
      "count": 2565,
      "max": [
        1.0,
        1.0,
        1.0
      ],
      "min": [
        -1.0,
        -1.0,
        -1.0
      ],
      "type": "VEC3"
    },
    {
      "bufferView": 3,
      "byteOffset": 186960,
      "componentType": 5126,
      "count": 2565,
      "max": [
        1.0,
        1.0,
        1.0,
        1.0
      ],
      "min": [
        -1.0,
        -0.9999985098838806,
        -1.0,
        -1.0
      ],
      "type": "VEC4"
    },
    {
      "bufferView": 1,
      "byteOffset": 93480,
      "componentType": 5126,
      "count": 2565,
      "max": [
        1.9957388639450073,
        0.991655707359314
      ],
      "min": [
        0.005226141773164272,
        0.008102834224700928
      ],
      "type": "VEC2"
    },
    {
      "bufferView": 0,
      "byteOffset": 200640,
      "componentType": 5125,
      "count": 9978,
      "type": "SCALAR"
    },
    {
      "bufferView": 2,
      "byteOffset": 342000,
      "componentType": 5126,
      "count": 126,
      "max": [
        -2.3328802585601807,
        -17.084346771240234,
        -2.687337636947632
      ],
      "min": [
        -2.800797462463379,
        -18.60714340209961,
        -4.007022857666016
      ],
      "type": "VEC3"
    },
    {
      "bufferView": 2,
      "byteOffset": 343512,
      "componentType": 5126,
      "count": 126,
      "max": [
        1.0,
        0.9740818738937378,
        1.0
      ],
      "min": [
        -1.0,
        -0.03065011277794838,
        -1.0
      ],
      "type": "VEC3"
    },
    {
      "bufferView": 3,
      "byteOffset": 228000,
      "componentType": 5126,
      "count": 126,
      "max": [
        0.9967018365859985,
        1.0,
        1.0,
        1.0
      ],
      "min": [
        -1.0,
        -1.0,
        -0.6426800489425659,
        -1.0
      ],
      "type": "VEC4"
    },
    {
      "bufferView": 1,
      "byteOffset": 114000,
      "componentType": 5126,
      "count": 126,
      "max": [
        1.8269195556640625,
        0.9191314578056335
      ],
      "min": [
        0.04500320926308632,
        0.17280763387680054
      ],
      "type": "VEC2"
    },
    {
      "bufferView": 0,
      "byteOffset": 240552,
      "componentType": 5125,
      "count": 444,
      "type": "SCALAR"
    }
  ],
  "asset": {
    "extras": {
      "author": "MaX3Dd (https://sketchfab.com/MaX3Dd)",
      "license": "CC-BY-4.0 (http://creativecommons.org/licenses/by/4.0/)",
      "source": "https://sketchfab.com/3d-models/rpg7-e83a4ec772cf4a1a93b5b1f36bb0caaa",
      "title": "RPG7"
    },
    "generator": "Sketchfab-15.31.0",
    "version": "2.0"
  },
  "bufferViews": [
    {
      "buffer": 0,
      "byteLength": 242328,
      "name": "floatBufferViews",
      "target": 34963
    },
    {
      "buffer": 0,
      "byteLength": 115008,
      "byteOffset": 242328,
      "byteStride": 8,
      "name": "floatBufferViews",
      "target": 34962
    },
    {
      "buffer": 0,
      "byteLength": 345024,
      "byteOffset": 357336,
      "byteStride": 12,
      "name": "floatBufferViews",
      "target": 34962
    },
    {
      "buffer": 0,
      "byteLength": 230016,
      "byteOffset": 702360,
      "byteStride": 16,
      "name": "floatBufferViews",
      "target": 34962
    }
  ],
  "buffers": [
    {
      "byteLength": 932376,
      "uri": "scene.bin"
    }
  ],
  "images": [
    {
      "uri": "textures/RPG7_baseColor.png"
    },
    {
      "uri": "textures/RPG7_metallicRoughness.png"
    },
    {
      "uri": "textures/RPG7_normal.png"
    },
    {
      "uri": "textures/RPG7Rocket_baseColor.png"
    },
    {
      "uri": "textures/RPG7Rocket_metallicRoughness.png"
    },
    {
      "uri": "textures/RPG7Rocket_normal.png"
    }
  ],
  "materials": [
    {
      "doubleSided": true,
      "name": "RPG7",
      "normalTexture": {
        "index": 2
      },
      "occlusionTexture": {
        "index": 1
      },
      "pbrMetallicRoughness": {
        "baseColorTexture": {
          "index": 0
        },
        "metallicRoughnessTexture": {
          "index": 1
        }
      }
    },
    {
      "doubleSided": true,
      "name": "RPG7Rocket",
      "normalTexture": {
        "index": 5
      },
      "occlusionTexture": {
        "index": 4
      },
      "pbrMetallicRoughness": {
        "baseColorTexture": {
          "index": 3
        },
        "metallicRoughnessTexture": {
          "index": 4
        }
      }
    }
  ],
  "meshes": [
    {
      "name": "RPG7_RPG7_0",
      "primitives": [
        {
          "attributes": {
            "NORMAL": 1,
            "POSITION": 0,
            "TANGENT": 2,
            "TEXCOORD_0": 3
          },
          "indices": 4,
          "material": 0,
          "mode": 4
        }
      ]
    },
    {
      "name": "sight_RPG7_0",
      "primitives": [
        {
          "attributes": {
            "NORMAL": 6,
            "POSITION": 5,
            "TANGENT": 7,
            "TEXCOORD_0": 8
          },
          "indices": 9,
          "material": 0,
          "mode": 4
        }
      ]
    },
    {
      "name": "sight_adjust_RPG7_0",
      "primitives": [
        {
          "attributes": {
            "NORMAL": 11,
            "POSITION": 10,
            "TANGENT": 12,
            "TEXCOORD_0": 13
          },
          "indices": 14,
          "material": 0,
          "mode": 4
        }
      ]
    },
    {
      "name": "rocket_RPG7Rocket_0",
      "primitives": [
        {
          "attributes": {
            "NORMAL": 16,
            "POSITION": 15,
            "TANGENT": 17,
            "TEXCOORD_0": 18
          },
          "indices": 19,
          "material": 1,
          "mode": 4
        }
      ]
    },
    {
      "name": "hammer_RPG7_0",
      "primitives": [
        {
          "attributes": {
            "NORMAL": 21,
            "POSITION": 20,
            "TANGENT": 22,
            "TEXCOORD_0": 23
          },
          "indices": 24,
          "material": 0,
          "mode": 4
        }
      ]
    }
  ],
  "nodes": [
    {
      "children": [
        1
      ],
      "matrix": [
        1.0,
        0.0,
        0.0,
        0.0,
        0.0,
        2.220446049250313e-16,
        -1.0,
        0.0,
        0.0,
        1.0,
        2.220446049250313e-16,
        0.0,
        0.0,
        0.0,
        0.0,
        1.0
      ],
      "name": "Sketchfab_model"
    },
    {
      "children": [
        2
      ],
      "matrix": [
        0.009999999776482582,
        0.0,
        0.0,
        0.0,
        0.0,
        0.0,
        0.009999999776482582,
        0.0,
        0.0,
        -0.009999999776482582,
        0.0,
        0.0,
        0.0,
        0.0,
        0.0,
        1.0
      ],
      "name": "RPG7.fbx"
    },
    {
      "children": [
        3,
        6,
        9,
        12,
        15
      ],
      "name": "RootNode"
    },
    {
      "children": [
        4
      ],
      "matrix": [
        1.0,
        0.0,
        0.0,
        0.0,
        0.0,
        2.220446049250313e-16,
        -1.0,
        0.0,
        0.0,
        1.0,
        2.220446049250313e-16,
        0.0,
        0.0,
        6.450826168060303,
        0.0,
        1.0
      ],
      "name": "RPG7"
    },
    {
      "children": [
        5
      ],
      "matrix": [
        1.0,
        0.0,
        -0.0,
        0.0,
        0.0,
        1.0,
        0.0,
        0.0,
        0.0,
        0.0,
        1.0,
        0.0,
        -1.6062006950378418,
        5.109755992889404,
        2.024448871612549,
        1.0
      ],
      "name": "Object_4"
    },
    {
      "mesh": 0,
      "name": "RPG7_RPG7_0"
    },
    {
      "children": [
        7
      ],
      "matrix": [
        1.0,
        0.0,
        0.0,
        0.0,
        0.0,
        2.220446049250313e-16,
        -1.0,
        0.0,
        0.0,
        1.0,
        2.220446049250313e-16,
        0.0,
        0.8357646465301514,
        11.707966804504395,
        7.697140693664551,
        1.0
      ],
      "name": "sight"
    },
    {
      "children": [
        8
      ],
      "matrix": [
        1.0,
        0.0,
        -0.0,
        0.0,
        0.0,
        1.0,
        0.0,
        0.0,
        0.0,
        0.0,
        1.0,
        0.0,
        -12.520576477050781,
        12.390180587768555,
        -3.2561330795288086,
        1.0
      ],
      "name": "Object_7"
    },
    {
      "mesh": 1,
      "name": "sight_RPG7_0"
    },
    {
      "children": [
        10
      ],
      "matrix": [
        1.0,
        0.0,
        0.0,
        0.0,
        0.0,
        2.220446049250313e-16,
        -1.0,
        0.0,
        0.0,
        1.0,
        2.220446049250313e-16,
        0.0,
        0.8304088115692139,
        12.888214111328125,
        7.455103874206543,
        1.0
      ],
      "name": "sight_adjust"
    },
    {
      "children": [
        11
      ],
      "matrix": [
        1.0,
        0.0,
        -0.0,
        0.0,
        0.0,
        1.0,
        0.0,
        0.0,
        0.0,
        0.0,
        1.0,
        0.0,
        -12.515220642089844,
        12.148143768310547,
        -2.9472291469573975,
        1.0
      ],
      "name": "Object_10"
    },
    {
      "mesh": 2,
      "name": "sight_adjust_RPG7_0"
    },
    {
      "children": [
        13
      ],
      "matrix": [
        0.9064514648511959,
        -0.01299512287159596,
        -0.4221100196046918,
        0.0,
        -0.4223100068304326,
        -0.02789281376297814,
        -0.9060222122394482,
        0.0,
        3.380812618747342e-08,
        0.9995264467346204,
        -0.030771452322938986,
        0.0,
        -8.047983169555664,
        1.6059399843215942,
        20.086708068847656,
        1.0
      ],
      "name": "rocket"
    },
    {
      "children": [
        14
      ],
      "matrix": [
        1.0,
        0.0,
        -0.0,
        0.0,
        0.0,
        1.0,
        0.0,
        0.0,
        0.0,
        0.0,
        1.0,
        0.0,
        8.32701301574707,
        26.16938018798828,
        0.39840269088745117,
        1.0
      ],
      "name": "Object_13"
    },
    {
      "mesh": 3,
      "name": "rocket_RPG7Rocket_0"
    },
    {
      "children": [
        16
      ],
      "matrix": [
        1.0,
        0.0,
        0.0,
        0.0,
        0.0,
        2.220446049250313e-16,
        -1.0,
        0.0,
        0.0,
        1.0,
        2.220446049250313e-16,
        0.0,
        0.00820624828338623,
        5.128094673156738,
        12.493419647216797,
        1.0
      ],
      "name": "hammer"
    },
    {
      "children": [
        17
      ],
      "matrix": [
        1.0,
        0.0,
        -0.0,
        0.0,
        0.0,
        1.0,
        0.0,
        0.0,
        0.0,
        0.0,
        1.0,
        0.0,
        2.5668387413024902,
        17.845745086669922,
        3.3471803665161133,
        1.0
      ],
      "name": "Object_16"
    },
    {
      "mesh": 4,
      "name": "hammer_RPG7_0"
    }
  ],
  "samplers": [
    {
      "magFilter": 9729,
      "minFilter": 9987,
      "wrapS": 10497,
      "wrapT": 10497
    }
  ],
  "scene": 0,
  "scenes": [
    {
      "name": "Sketchfab_Scene",
      "nodes": [
        0
      ]
    }
  ],
  "textures": [
    {
      "sampler": 0,
      "source": 0
    },
    {
      "sampler": 0,
      "source": 1
    },
    {
      "sampler": 0,
      "source": 2
    },
    {
      "sampler": 0,
      "source": 3
    },
    {
      "sampler": 0,
      "source": 4
    },
    {
      "sampler": 0,
      "source": 5
    }
  ]
}
