{
  "accessors": [
    {
      "bufferView": 2,
      "componentType": 5126,
      "count": 32271,
      "max": [
        2.878235340118408,
        57.19990921020508,
        2.4248900413513184
      ],
      "min": [
        -2.878235340118408,
        -0.15126119554042816,
        -2.4248900413513184
      ],
      "type": "VEC3"
    },
    {
      "bufferView": 2,
      "byteOffset": 387252,
      "componentType": 5126,
      "count": 32271,
      "max": [
        1.0,
        1.0000003576278687,
        1.0
      ],
      "min": [
        -1.0,
        -1.0000003576278687,
        -1.0
      ],
      "type": "VEC3"
    },
    {
      "bufferView": 3,
      "componentType": 5126,
      "count": 32271,
      "max": [
        1.0,
        1.0,
        1.0,
        1.0
      ],
      "min": [
        -1.0,
        -1.0,
        -1.0,
        -1.0
      ],
      "type": "VEC4"
    },
    {
      "bufferView": 1,
      "componentType": 5126,
      "count": 32271,
      "max": [
        0.9953404068946838,
        0.9998300671577454
      ],
      "min": [
        0.0030876656528562307,
        0.011585146188735962
      ],
      "type": "VEC2"
    },
    {
      "bufferView": 0,
      "componentType": 5125,
      "count": 149382,
      "type": "SCALAR"
    }
  ],
  "asset": {
    "extras": {
      "author": "MalakaiGregory06 (https://sketchfab.com/MalakaiGregory06)",
      "license": "CC-BY-4.0 (http://creativecommons.org/licenses/by/4.0/)",
      "source": "https://sketchfab.com/3d-models/vergils-yamato-v2-a4d2b2ef06d24ea998366b5c8dc833e5",
      "title": "Vergil's Yamato V2"
    },
    "generator": "Sketchfab-15.5.0",
    "version": "2.0"
  },
  "bufferViews": [
    {
      "buffer": 0,
      "byteLength": 597528,
      "name": "floatBufferViews",
      "target": 34963
    },
    {
      "buffer": 0,
      "byteLength": 258168,
      "byteOffset": 597528,
      "byteStride": 8,
      "name": "floatBufferViews",
      "target": 34962
    },
    {
      "buffer": 0,
      "byteLength": 774504,
      "byteOffset": 855696,
      "byteStride": 12,
      "name": "floatBufferViews",
      "target": 34962
    },
    {
      "buffer": 0,
      "byteLength": 516336,
      "byteOffset": 1630200,
      "byteStride": 16,
      "name": "floatBufferViews",
      "target": 34962
    }
  ],
  "buffers": [
    {
      "byteLength": 2146536,
      "uri": "scene.bin"
    }
  ],
  "extensionsUsed": [
    "KHR_materials_specular"
  ],
  "images": [
    {
      "uri": "textures/standardSurface2_baseColor.png"
    },
    {
      "uri": "textures/standardSurface2_metallicRoughness.png"
    },
    {
      "uri": "textures/standardSurface2_normal.png"
    }
  ],
  "materials": [
    {
      "doubleSided": true,
      "extensions": {
        "KHR_materials_specular": {
          "specularColorFactor": [
            1.0,
            1.0,
            1.0
          ],
          "specularFactor": 0.5287635162316685
        }
      },
      "name": "standardSurface2",
      "normalTexture": {
        "index": 2,
        "scale": 0.27276273603881457
      },
      "pbrMetallicRoughness": {
        "baseColorTexture": {
          "index": 0
        },
        "metallicRoughnessTexture": {
          "index": 1
        }
      }
    }
  ],
  "meshes": [
    {
      "name": "polySurface18_standardSurface2_0",
      "primitives": [
        {
          "attributes": {
            "NORMAL": 1,
            "POSITION": 0,
            "TANGENT": 2,
            "TEXCOORD_0": 3
          },
          "indices": 4,
          "material": 0,
          "mode": 4
        }
      ]
    }
  ],
  "nodes": [
    {
      "children": [
        1
      ],
      "matrix": [
        0.39466771483421326,
        -0.5141286849975588,
        0.7615176439285277,
        0.0,
        1.6653345369377348e-16,
        -0.8287960290908812,
        -0.5595508217811587,
        0.0,
        0.9188238978385925,
        0.22083665430545815,
        -0.32709905505180353,
        0.0,
        0.0,
        0.0,
        0.0,
        1.0
      ],
      "name": "Sketchfab_model"
    },
    {
      "children": [
        2
      ],
      "matrix": [
        0.009999999776482582,
        0.0,
        0.0,
        0.0,
        0.0,
        0.0,
        0.009999999776482582,
        0.0,
        0.0,
        -0.009999999776482582,
        0.0,
        0.0,
        0.0,
        0.0,
        0.0,
        1.0
      ],
      "name": "f0d5fad91f654e1a8ec05609edcfb20e.fbx"
    },
    {
      "children": [
        3
      ],
      "name": "RootNode"
    },
    {
      "children": [
        4
      ],
      "name": "polySurface18"
    },
    {
      "mesh": 0,
      "name": "polySurface18_standardSurface2_0"
    }
  ],
  "samplers": [
    {
      "magFilter": 9729,
      "minFilter": 9987,
      "wrapS": 10497,
      "wrapT": 10497
    }
  ],
  "scene": 0,
  "scenes": [
    {
      "name": "Sketchfab_Scene",
      "nodes": [
        0
      ]
    }
  ],
  "textures": [
    {
      "sampler": 0,
      "source": 0
    },
    {
      "sampler": 0,
      "source": 1
    },
    {
      "sampler": 0,
      "source": 2
    }
  ]
}
