{
  "accessors": [
    {
      "bufferView": 2,
      "componentType": 5126,
      "count": 6174,
      "max": [
        1930.6700439453125,
        926.6400146484375,
        1884.5699462890625
      ],
      "min": [
        -1927.9000244140625,
        -840.1599731445313,
        1.283750057220459
      ],
      "type": "VEC3"
    },
    {
      "bufferView": 2,
      "byteOffset": 74088,
      "componentType": 5126,
      "count": 6174,
      "max": [
        1.0,
        1.0,
        0.9999868869781494
      ],
      "min": [
        -0.9998109936714172,
        -1.0,
        -1.0
      ],
      "type": "VEC3"
    },
    {
      "bufferView": 3,
      "componentType": 5126,
      "count": 6174,
      "max": [
        1.0,
        1.0,
        1.0,
        1.0
      ],
      "min": [
        -0.9998143315315247,
        -0.9999997019767761,
        -1.0,
        1.0
      ],
      "type": "VEC4"
    },
    {
      "bufferView": 1,
      "componentType": 5126,
      "count": 6174,
      "max": [
        0.9968460202217102,
        0.9970700144767761
      ],
      "min": [
        0.00292969006113708,
        0.00292969006113708
      ],
      "type": "VEC2"
    },
    {
      "bufferView": 0,
      "componentType": 5125,
      "count": 24186,
      "type": "SCALAR"
    },
    {
      "bufferView": 2,
      "byteOffset": 148176,
      "componentType": 5126,
      "count": 1881,
      "max": [
        1857.75,
        1014.6900024414063,
        1816.199951171875
      ],
      "min": [
        -673.468994140625,
        -928.2750244140625,
        151.1929931640625
      ],
      "type": "VEC3"
    },
    {
      "bufferView": 2,
      "byteOffset": 170748,
      "componentType": 5126,
      "count": 1881,
      "max": [
        0.9999822378158569,
        0.9999998807907104,
        0.9989365339279175
      ],
      "min": [
        -0.9999822378158569,
        -0.9999998807907104,
        -0.9953413605690002
      ],
      "type": "VEC3"
    },
    {
      "bufferView": 3,
      "byteOffset": 98784,
      "componentType": 5126,
      "count": 1881,
      "max": [
        1.0,
        1.0,
        0.9998153448104858,
        1.0
      ],
      "min": [
        -1.0,
        -0.9999999403953552,
        -0.9998160004615784,
        1.0
      ],
      "type": "VEC4"
    },
    {
      "bufferView": 1,
      "byteOffset": 49392,
      "componentType": 5126,
      "count": 1881,
      "max": [
        0.9969779849052429,
        0.9866719841957092
      ],
      "min": [
        0.00292969006113708,
        0.00292969006113708
      ],
      "type": "VEC2"
    },
    {
      "bufferView": 0,
      "byteOffset": 96744,
      "componentType": 5125,
      "count": 7668,
      "type": "SCALAR"
    }
  ],
  "asset": {
    "extras": {
      "author": "hawol (https://sketchfab.com/hawol)",
      "license": "CC-BY-4.0 (http://creativecommons.org/licenses/by/4.0/)",
      "source": "https://sketchfab.com/3d-models/uaz-001-09016f12adde42e996c29209635e2b92",
      "title": "UAZ 001 УАЗ"
    },
    "generator": "Sketchfab-12.65.0",
    "version": "2.0"
  },
  "bufferViews": [
    {
      "buffer": 0,
      "byteLength": 127416,
      "name": "floatBufferViews",
      "target": 34963
    },
    {
      "buffer": 0,
      "byteLength": 64440,
      "byteOffset": 127416,
      "byteStride": 8,
      "name": "floatBufferViews",
      "target": 34962
    },
    {
      "buffer": 0,
      "byteLength": 193320,
      "byteOffset": 191856,
      "byteStride": 12,
      "name": "floatBufferViews",
      "target": 34962
    },
    {
      "buffer": 0,
      "byteLength": 128880,
      "byteOffset": 385176,
      "byteStride": 16,
      "name": "floatBufferViews",
      "target": 34962
    }
  ],
  "buffers": [
    {
      "byteLength": 514056,
      "uri": "scene.bin"
    }
  ],
  "extensionsUsed": [
    "KHR_materials_clearcoat"
  ],
  "images": [
    {
      "uri": "textures/material_baseColor.png"
    },
    {
      "uri": "textures/material_metallicRoughness.png"
    },
    {
      "uri": "textures/material_emissive.png"
    },
    {
      "uri": "textures/material_normal.png"
    },
    {
      "uri": "textures/material_clearcoat.png"
    }
  ],
  "materials": [
    {
      "doubleSided": true,
      "emissiveFactor": [
        1.0,
        1.0,
        1.0
      ],
      "emissiveTexture": {
        "index": 2
      },
      "extensions": {
        "KHR_materials_clearcoat": {
          "clearcoatFactor": 1.0,
          "clearcoatNormalTexture": {
            "index": 3
          },
          "clearcoatRoughnessFactor": 1.0,
          "clearcoatRoughnessTexture": {
            "index": 1
          },
          "clearcoatTexture": {
            "index": 4
          }
        }
      },
      "name": "material",
      "normalTexture": {
        "index": 3
      },
      "occlusionTexture": {
        "index": 1
      },
      "pbrMetallicRoughness": {
        "baseColorTexture": {
          "index": 0
        },
        "metallicRoughnessTexture": {
          "index": 1
        }
      }
    }
  ],
  "meshes": [
    {
      "name": "Object_0",
      "primitives": [
        {
          "attributes": {
            "NORMAL": 1,
            "POSITION": 0,
            "TANGENT": 2,
            "TEXCOORD_0": 3
          },
          "indices": 4,
          "material": 0,
          "mode": 4
        }
      ]
    },
    {
      "name": "Object_1",
      "primitives": [
        {
          "attributes": {
            "NORMAL": 6,
            "POSITION": 5,
            "TANGENT": 7,
            "TEXCOORD_0": 8
          },
          "indices": 9,
          "material": 0,
          "mode": 4
        }
      ]
    }
  ],
  "nodes": [
    {
      "children": [
        1
      ],
      "matrix": [
        1.0,
        0.0,
        0.0,
        0.0,
        0.0,
        2.220446049250313e-16,
        -1.0,
        0.0,
        0.0,
        1.0,
        2.220446049250313e-16,
        0.0,
        0.0,
        0.0,
        0.0,
        1.0
      ],
      "name": "Sketchfab_model"
    },
    {
      "children": [
        2,
        3
      ],
      "name": "UAZ_001.obj.cleaner.materialmerger.gles"
    },
    {
      "mesh": 0,
      "name": "Object_2"
    },
    {
      "mesh": 1,
      "name": "Object_3"
    }
  ],
  "samplers": [
    {
      "magFilter": 9729,
      "minFilter": 9987,
      "wrapS": 10497,
      "wrapT": 10497
    }
  ],
  "scene": 0,
  "scenes": [
    {
      "name": "Sketchfab_Scene",
      "nodes": [
        0
      ]
    }
  ],
  "textures": [
    {
      "sampler": 0,
      "source": 0
    },
    {
      "sampler": 0,
      "source": 1
    },
    {
      "sampler": 0,
      "source": 2
    },
    {
      "sampler": 0,
      "source": 3
    },
    {
      "sampler": 0,
      "source": 4
    }
  ]
}
