{
  "accessors": [
    {
      "bufferView": 2,
      "componentType": 5126,
      "count": 11666,
      "max": [
        70.7646255493164,
        81.99784851074219,
        399.5149841308594
      ],
      "min": [
        -70.62409210205078,
        -74.64747619628906,
        -0.008605999872088432
      ],
      "type": "VEC3"
    },
    {
      "bufferView": 2,
      "byteOffset": 139992,
      "componentType": 5126,
      "count": 11666,
      "max": [
        0.9998071193695068,
        0.9994078874588013,
        0.9999962449073792
      ],
      "min": [
        -0.9999054670333862,
        -0.9998351335525513,
        -0.9998748898506165
      ],
      "type": "VEC3"
    },
    {
      "bufferView": 3,
      "componentType": 5126,
      "count": 11666,
      "max": [
        0.9994622468948364,
        0.9999854564666748,
        0.9999569654464722,
        1.0
      ],
      "min": [
        -0.9999604225158691,
        -0.9999728798866272,
        -0.9999517202377319,
        -1.0
      ],
      "type": "VEC4"
    },
    {
      "bufferView": 1,
      "componentType": 5126,
      "count": 11666,
      "max": [
        0.9926040172576904,
        0.9959020018577576
      ],
      "min": [
        0.00342399999499321,
        0.013508000411093235
      ],
      "type": "VEC2"
    },
    {
      "bufferView": 1,
      "byteOffset": 93328,
      "componentType": 5126,
      "count": 11666,
      "max": [
        0.9926040172576904,
        0.9959020018577576
      ],
      "min": [
        0.00342399999499321,
        0.013508000411093235
      ],
      "type": "VEC2"
    },
    {
      "bufferView": 0,
      "componentType": 5125,
      "count": 62334,
      "type": "SCALAR"
    }
  ],
  "asset": {
    "extras": {
      "author": "Sergey Shavin (https://sketchfab.com/ssh-72)",
      "license": "CC-BY-SA-4.0 (http://creativecommons.org/licenses/by-sa/4.0/)",
      "source": "https://sketchfab.com/3d-models/tartu-lenin-statue-bronze-1952-low-poly-pbr-28167dd6b19441a3a7edfaba74e6b493",
      "title": "Tartu Lenin statue (bronze, 1952). Low-poly, PBR"
    },
    "generator": "Sketchfab-15.19.0",
    "version": "2.0"
  },
  "bufferViews": [
    {
      "buffer": 0,
      "byteLength": 249336,
      "name": "floatBufferViews",
      "target": 34963
    },
    {
      "buffer": 0,
      "byteLength": 186656,
      "byteOffset": 249336,
      "byteStride": 8,
      "name": "floatBufferViews",
      "target": 34962
    },
    {
      "buffer": 0,
      "byteLength": 279984,
      "byteOffset": 435992,
      "byteStride": 12,
      "name": "floatBufferViews",
      "target": 34962
    },
    {
      "buffer": 0,
      "byteLength": 186656,
      "byteOffset": 715976,
      "byteStride": 16,
      "name": "floatBufferViews",
      "target": 34962
    }
  ],
  "buffers": [
    {
      "byteLength": 902632,
      "uri": "scene.bin"
    }
  ],
  "images": [
    {
      "uri": "textures/ussr_statue_lenin_classic_bronze_1952_a_baseColor.jpeg"
    },
    {
      "uri": "textures/ussr_statue_lenin_classic_bronze_1952_a_metallicRoughness.png"
    },
    {
      "uri": "textures/ussr_statue_lenin_classic_bronze_1952_a_normal.png"
    }
  ],
  "materials": [
    {
      "doubleSided": true,
      "name": "ussr_statue_lenin_classic_bronze_1952_a",
      "normalTexture": {
        "index": 2
      },
      "occlusionTexture": {
        "index": 1
      },
      "pbrMetallicRoughness": {
        "baseColorTexture": {
          "index": 0
        },
        "metallicRoughnessTexture": {
          "index": 1
        }
      }
    }
  ],
  "meshes": [
    {
      "name": "defaultMaterial",
      "primitives": [
        {
          "attributes": {
            "NORMAL": 1,
            "POSITION": 0,
            "TANGENT": 2,
            "TEXCOORD_0": 3,
            "TEXCOORD_1": 4
          },
          "indices": 5,
          "material": 0,
          "mode": 4
        }
      ]
    }
  ],
  "nodes": [
    {
      "children": [
        1
      ],
      "matrix": [
        1.0,
        0.0,
        0.0,
        0.0,
        0.0,
        2.220446049250313e-16,
        -1.0,
        0.0,
        0.0,
        1.0,
        2.220446049250313e-16,
        0.0,
        0.0,
        0.0,
        0.0,
        1.0
      ],
      "name": "Sketchfab_model"
    },
    {
      "children": [
        2
      ],
      "matrix": [
        1.0,
        0.0,
        0.0,
        0.0,
        0.0,
        -4.371139006309477e-08,
        0.999999999999999,
        0.0,
        0.0,
        -0.999999999999999,
        -4.371139006309477e-08,
        0.0,
        0.0,
        0.0,
        0.0,
        1.0
      ],
      "name": "Collada visual scene group"
    },
    {
      "children": [
        3
      ],
      "matrix": [
        1.0,
        0.0,
        0.0,
        0.0,
        0.0,
        0.0,
        -1.0,
        0.0,
        0.0,
        1.0,
        0.0,
        0.0,
        0.0,
        0.0,
        0.0,
        1.0
      ],
      "name": "ussr_statue_lenin_classic_bronze_1952_a"
    },
    {
      "mesh": 0,
      "name": "defaultMaterial"
    }
  ],
  "samplers": [
    {
      "magFilter": 9729,
      "minFilter": 9987,
      "wrapS": 10497,
      "wrapT": 10497
    }
  ],
  "scene": 0,
  "scenes": [
    {
      "name": "Sketchfab_Scene",
      "nodes": [
        0
      ]
    }
  ],
  "textures": [
    {
      "sampler": 0,
      "source": 0
    },
    {
      "sampler": 0,
      "source": 1
    },
    {
      "sampler": 0,
      "source": 2
    }
  ]
}
