<svg width="800" height="800" viewBox="0 0 800 800" fill="none" xmlns="http://www.w3.org/2000/svg">
<path fill-rule="evenodd" clip-rule="evenodd" d="M513.053 269.067C513.053 269.067 513.053 269.067 513.053 269.067C512.973 268.466 512.887 267.867 512.797 267.268C512.887 267.867 512.973 268.467 513.053 269.067ZM596.073 310.883L613.625 328.201V412.804H690V456.023H613.625V474.98C610.018 498.54 603.423 521.555 593.995 543.475L589.995 552.776L683.788 647.346L651.006 679.868L565.635 595.134L555.221 608.314C536.596 631.886 512.945 651.081 485.961 664.515C459.081 677.898 429.56 685.232 399.498 685.996C369.435 685.242 339.912 677.912 313.032 664.53C286.047 651.095 262.4 631.896 243.782 608.318L233.369 595.13L147.994 679.868L115.212 647.346L209.017 552.764L204.996 543.455C195.711 521.954 189.106 499.502 185.375 476.435V458.603H109V412.804H185.375V328.201L202.927 310.883L115.295 223.901L147.99 191.467L223.338 266.321L229.756 240.752C239.191 203.164 261.009 169.769 291.764 145.889C322.52 122.007 360.444 109.017 399.506 109L399.512 109C438.582 108.968 476.525 121.939 507.287 145.825C538.047 169.709 559.85 203.127 569.24 240.734L575.635 266.349L651.01 191.467L683.705 223.901L596.073 310.883ZM349.956 165.07C365.672 158.618 382.512 155.309 399.511 155.33C433.823 155.333 466.749 168.869 491.049 192.993C515.355 217.124 529.04 249.877 529.062 284.057L529.073 299.067H269.948L269.938 284.077C269.926 267.146 273.276 250.381 279.793 234.742C286.31 219.104 295.865 204.903 307.906 192.949C319.947 180.995 334.237 171.523 349.956 165.07ZM567.181 475.035L567.25 474.32V344.79H231.75V474.25L231.819 474.969C235.921 517.43 254.779 557.128 285.129 587.25C315.477 617.369 355.421 636.034 398.091 640.059L399.491 640.191L400.891 640.06C443.571 636.084 483.535 617.445 513.894 587.329C544.255 557.212 563.108 517.503 567.181 475.035Z" fill="white"/>
</svg>
