<svg width="800" height="800" viewBox="0 0 800 800" fill="none" xmlns="http://www.w3.org/2000/svg">
<rect width="800" height="800"/>
<path d="M53.0002 447.712L53.9604 654.003C53.9686 656.656 55.4333 659.081 57.7606 660.342L222.535 746.615C223.609 747.193 224.781 747.477 225.961 747.477C225.969 747.477 225.969 747.477 225.977 747.477C226.473 748.031 227.027 748.56 227.694 748.958C228.833 749.642 230.111 749.984 231.397 749.984C232.585 749.984 233.765 749.699 234.839 749.121L397.522 660.895C399.011 660.09 400.085 658.772 400.712 657.274C401.371 658.536 402.364 659.65 403.674 660.358L568.44 746.631C569.514 747.209 570.694 747.494 571.874 747.494C571.882 747.494 571.882 747.494 571.89 747.494C572.395 748.047 572.94 748.576 573.599 748.975C574.755 749.658 576.032 750 577.31 750C578.498 750 579.669 749.715 580.744 749.137L743.427 660.887C745.762 659.634 747.227 657.177 747.227 654.516V439.875C747.227 439.81 747.194 439.745 747.194 439.696C747.194 439.647 747.211 439.59 747.211 439.525C747.202 439.338 747.129 439.127 747.097 438.939C747.04 438.533 746.983 438.142 746.877 437.751C746.787 437.499 746.69 437.247 746.568 436.995C746.413 436.653 746.267 436.327 746.063 436.018C745.909 435.774 745.738 435.546 745.559 435.335C745.331 435.058 745.079 434.798 744.81 434.545C744.607 434.358 744.371 434.179 744.135 434.008C743.972 433.911 743.858 433.764 743.679 433.658C743.516 433.569 743.345 433.52 743.174 433.455C743.02 433.374 742.93 433.276 742.776 433.219L575.121 352.024C574.453 351.747 573.737 351.715 573.029 351.641V138.417C573.029 138.36 573.013 138.295 573.013 138.238C573.005 138.181 573.021 138.132 573.021 138.075C573.013 137.872 572.924 137.676 572.899 137.481C572.842 137.082 572.785 136.684 572.679 136.301C572.598 136.041 572.484 135.789 572.37 135.544C572.207 135.203 572.077 134.869 571.866 134.568C571.703 134.324 571.532 134.104 571.361 133.884C571.133 133.608 570.889 133.339 570.621 133.095C570.417 132.908 570.173 132.729 569.945 132.566C569.774 132.452 569.66 132.306 569.49 132.2C569.319 132.11 569.148 132.07 568.985 131.988C568.83 131.915 568.733 131.817 568.594 131.769L400.988 50.5736C399.035 49.7436 396.822 49.8168 394.918 50.7771L229.216 137.156C226.783 138.384 225.253 140.866 225.237 143.584C225.237 143.633 225.253 143.674 225.253 143.714C224.952 144.52 224.74 145.358 224.74 146.253L225.7 351.584C224.838 351.674 223.967 351.829 223.17 352.227L57.4677 438.606C55.0427 439.826 53.5047 442.317 53.4885 445.043C53.4885 445.083 53.5129 445.116 53.5129 445.165C53.2037 445.962 52.9921 446.816 53.0002 447.712ZM549.114 139.223L403.055 220.89L248.404 143.706L398.441 65.2128L549.114 139.223ZM558.594 351.153L410.379 429.158V233.38L558.594 150.542V351.153ZM584.536 534.831L732.75 452V650.187L584.536 730.609V534.831ZM422.569 445.148L572.606 366.655L723.27 440.697L577.22 522.34L422.569 445.148ZM238.623 534.831L386.845 452.008V650.195L238.623 730.609V534.831ZM76.6638 445.148L226.701 366.655L377.365 440.697L231.307 522.34L76.6638 445.148Z" fill="white"/>
</svg>
