<svg width="800" height="800" viewBox="0 0 800 800" fill="none" xmlns="http://www.w3.org/2000/svg">
<path d="M400 688C563.475 688 696 555.475 696 392C696 228.524 563.475 96 400 96C236.524 96 104 228.524 104 392C104 555.475 236.524 688 400 688Z" stroke="white" stroke-width="48" stroke-linecap="round" stroke-linejoin="round"/>
<path d="M399.5 424.165L282.724 540.942C273.98 549.686 259.802 549.686 251.058 540.942C242.314 532.197 242.314 518.022 251.058 509.277L252.822 511.04L251.058 509.277L367.836 392.5L251.058 275.724L252.703 274.079L251.058 275.724C242.314 266.98 242.314 252.802 251.058 244.058C259.802 235.314 273.98 235.314 282.724 244.058L281.125 245.658L282.724 244.058L399.5 360.836L516.277 244.058L518.045 245.826L516.277 244.058C525.022 235.314 539.197 235.314 547.942 244.058C556.686 252.802 556.686 266.98 547.942 275.724M399.5 424.165L547.942 275.724M399.5 424.165L516.277 540.942C525.022 549.686 539.197 549.686 547.942 540.942C556.686 532.197 556.686 518.022 547.942 509.277L431.165 392.5L547.942 275.724M399.5 424.165L547.942 275.724" fill="white" stroke="white" stroke-width="5"/>
</svg>
