{
  "accessors": [
    {
      "bufferView": 2,
      "componentType": 5126,
      "count": 6944,
      "max": [
        469.17425537109375,
        560.2838134765625,
        433.93670654296875
      ],
      "min": [
        -813.4095458984375,
        -539.2407836914063,
        -58.18307113647461
      ],
      "type": "VEC3"
    },
    {
      "bufferView": 2,
      "byteOffset": 83328,
      "componentType": 5126,
      "count": 6944,
      "max": [
        1.0,
        0.9999980926513672,
        0.9999384880065918
      ],
      "min": [
        -1.0,
        -1.0,
        -0.9996765851974487
      ],
      "type": "VEC3"
    },
    {
      "bufferView": 3,
      "componentType": 5126,
      "count": 6944,
      "max": [
        0.9999922513961792,
        0.9997655749320984,
        0.9999980926513672,
        1.0
      ],
      "min": [
        -0.9996172189712524,
        -0.9987443685531616,
        -1.0,
        -1.0
      ],
      "type": "VEC4"
    },
    {
      "bufferView": 1,
      "componentType": 5126,
      "count": 6944,
      "max": [
        0.9999611973762512,
        0.9601196050643921
      ],
      "min": [
        5.859846714884043e-05,
        7.641315460205078e-05
      ],
      "type": "VEC2"
    },
    {
      "bufferView": 1,
      "byteOffset": 55552,
      "componentType": 5126,
      "count": 6944,
      "max": [
        0.9999611973762512,
        0.9601196050643921
      ],
      "min": [
        5.859846714884043e-05,
        7.641315460205078e-05
      ],
      "type": "VEC2"
    },
    {
      "bufferView": 1,
      "byteOffset": 111104,
      "componentType": 5126,
      "count": 6944,
      "max": [
        0.9999611973762512,
        0.9601196050643921
      ],
      "min": [
        5.859846714884043e-05,
        7.641315460205078e-05
      ],
      "type": "VEC2"
    },
    {
      "bufferView": 1,
      "byteOffset": 166656,
      "componentType": 5126,
      "count": 6944,
      "max": [
        0.9999611973762512,
        0.9601196050643921
      ],
      "min": [
        5.859846714884043e-05,
        7.641315460205078e-05
      ],
      "type": "VEC2"
    },
    {
      "bufferView": 1,
      "byteOffset": 222208,
      "componentType": 5126,
      "count": 6944,
      "max": [
        0.9999611973762512,
        0.9601196050643921
      ],
      "min": [
        5.859846714884043e-05,
        7.641315460205078e-05
      ],
      "type": "VEC2"
    },
    {
      "bufferView": 1,
      "byteOffset": 277760,
      "componentType": 5126,
      "count": 6944,
      "max": [
        0.9999611973762512,
        0.9601196050643921
      ],
      "min": [
        5.859846714884043e-05,
        7.641315460205078e-05
      ],
      "type": "VEC2"
    },
    {
      "bufferView": 1,
      "byteOffset": 333312,
      "componentType": 5126,
      "count": 6944,
      "max": [
        0.9999611973762512,
        0.9601196050643921
      ],
      "min": [
        5.859846714884043e-05,
        7.641315460205078e-05
      ],
      "type": "VEC2"
    },
    {
      "bufferView": 1,
      "byteOffset": 388864,
      "componentType": 5126,
      "count": 6944,
      "max": [
        0.9999611973762512,
        0.9601196050643921
      ],
      "min": [
        5.859846714884043e-05,
        7.641315460205078e-05
      ],
      "type": "VEC2"
    },
    {
      "bufferView": 1,
      "byteOffset": 444416,
      "componentType": 5126,
      "count": 6944,
      "max": [
        0.9999611973762512,
        0.9601196050643921
      ],
      "min": [
        5.859846714884043e-05,
        7.641315460205078e-05
      ],
      "type": "VEC2"
    },
    {
      "bufferView": 0,
      "componentType": 5125,
      "count": 34791,
      "type": "SCALAR"
    },
    {
      "bufferView": 2,
      "byteOffset": 166656,
      "componentType": 5126,
      "count": 8456,
      "max": [
        632.79736328125,
        555.9625854492188,
        467.2101745605469
      ],
      "min": [
        -804.211181640625,
        -539.4550170898438,
        -57.09750747680664
      ],
      "type": "VEC3"
    },
    {
      "bufferView": 2,
      "byteOffset": 268128,
      "componentType": 5126,
      "count": 8456,
      "max": [
        0.999950110912323,
        1.0,
        1.0
      ],
      "min": [
        -0.9999980926513672,
        -0.9999961853027344,
        -0.9999521970748901
      ],
      "type": "VEC3"
    },
    {
      "bufferView": 3,
      "byteOffset": 111104,
      "componentType": 5126,
      "count": 8456,
      "max": [
        0.9999980926513672,
        0.9999231100082397,
        0.9992299675941467,
        1.0
      ],
      "min": [
        -0.999875545501709,
        -0.9999828338623047,
        -0.9999617338180542,
        -1.0
      ],
      "type": "VEC4"
    },
    {
      "bufferView": 1,
      "byteOffset": 499968,
      "componentType": 5126,
      "count": 8456,
      "max": [
        0.983953058719635,
        0.99994957447052
      ],
      "min": [
        4.533305764198303e-05,
        6.401538848876953e-05
      ],
      "type": "VEC2"
    },
    {
      "bufferView": 1,
      "byteOffset": 567616,
      "componentType": 5126,
      "count": 8456,
      "max": [
        0.983953058719635,
        0.99994957447052
      ],
      "min": [
        4.533305764198303e-05,
        6.401538848876953e-05
      ],
      "type": "VEC2"
    },
    {
      "bufferView": 1,
      "byteOffset": 635264,
      "componentType": 5126,
      "count": 8456,
      "max": [
        0.983953058719635,
        0.99994957447052
      ],
      "min": [
        4.533305764198303e-05,
        6.401538848876953e-05
      ],
      "type": "VEC2"
    },
    {
      "bufferView": 1,
      "byteOffset": 702912,
      "componentType": 5126,
      "count": 8456,
      "max": [
        0.983953058719635,
        0.99994957447052
      ],
      "min": [
        4.533305764198303e-05,
        6.401538848876953e-05
      ],
      "type": "VEC2"
    },
    {
      "bufferView": 1,
      "byteOffset": 770560,
      "componentType": 5126,
      "count": 8456,
      "max": [
        0.983953058719635,
        0.99994957447052
      ],
      "min": [
        4.533305764198303e-05,
        6.401538848876953e-05
      ],
      "type": "VEC2"
    },
    {
      "bufferView": 1,
      "byteOffset": 838208,
      "componentType": 5126,
      "count": 8456,
      "max": [
        0.983953058719635,
        0.99994957447052
      ],
      "min": [
        4.533305764198303e-05,
        6.401538848876953e-05
      ],
      "type": "VEC2"
    },
    {
      "bufferView": 1,
      "byteOffset": 905856,
      "componentType": 5126,
      "count": 8456,
      "max": [
        0.983953058719635,
        0.99994957447052
      ],
      "min": [
        4.533305764198303e-05,
        6.401538848876953e-05
      ],
      "type": "VEC2"
    },
    {
      "bufferView": 1,
      "byteOffset": 973504,
      "componentType": 5126,
      "count": 8456,
      "max": [
        0.983953058719635,
        0.99994957447052
      ],
      "min": [
        4.533305764198303e-05,
        6.401538848876953e-05
      ],
      "type": "VEC2"
    },
    {
      "bufferView": 1,
      "byteOffset": 1041152,
      "componentType": 5126,
      "count": 8456,
      "max": [
        0.983953058719635,
        0.99994957447052
      ],
      "min": [
        4.533305764198303e-05,
        6.401538848876953e-05
      ],
      "type": "VEC2"
    },
    {
      "bufferView": 0,
      "byteOffset": 139164,
      "componentType": 5125,
      "count": 43572,
      "type": "SCALAR"
    },
    {
      "bufferView": 2,
      "byteOffset": 369600,
      "componentType": 5126,
      "count": 10068,
      "max": [
        607.8134155273438,
        554.379638671875,
        500.0971984863281
      ],
      "min": [
        -758.6268920898438,
        -542.5789184570313,
        -57.608123779296875
      ],
      "type": "VEC3"
    },
    {
      "bufferView": 2,
      "byteOffset": 490416,
      "componentType": 5126,
      "count": 10068,
      "max": [
        1.0,
        1.0,
        0.9999961853027344
      ],
      "min": [
        -0.9999980926513672,
        -1.0,
        -0.9999904632568359
      ],
      "type": "VEC3"
    },
    {
      "bufferView": 3,
      "byteOffset": 246400,
      "componentType": 5126,
      "count": 10068,
      "max": [
        0.9999288320541382,
        0.9999058842658997,
        0.9999980926513672,
        1.0
      ],
      "min": [
        -0.9999693632125854,
        -0.9996746778488159,
        -0.9999980926513672,
        -1.0
      ],
      "type": "VEC4"
    },
    {
      "bufferView": 1,
      "byteOffset": 1108800,
      "componentType": 5126,
      "count": 10068,
      "max": [
        0.9999246001243591,
        0.9978986382484436
      ],
      "min": [
        5.76438287680503e-05,
        9.059906005859375e-05
      ],
      "type": "VEC2"
    },
    {
      "bufferView": 1,
      "byteOffset": 1189344,
      "componentType": 5126,
      "count": 10068,
      "max": [
        0.9999246001243591,
        0.9978986382484436
      ],
      "min": [
        5.76438287680503e-05,
        9.059906005859375e-05
      ],
      "type": "VEC2"
    },
    {
      "bufferView": 1,
      "byteOffset": 1269888,
      "componentType": 5126,
      "count": 10068,
      "max": [
        0.9999246001243591,
        0.9978986382484436
      ],
      "min": [
        5.76438287680503e-05,
        9.059906005859375e-05
      ],
      "type": "VEC2"
    },
    {
      "bufferView": 1,
      "byteOffset": 1350432,
      "componentType": 5126,
      "count": 10068,
      "max": [
        0.9999246001243591,
        0.9978986382484436
      ],
      "min": [
        5.76438287680503e-05,
        9.059906005859375e-05
      ],
      "type": "VEC2"
    },
    {
      "bufferView": 1,
      "byteOffset": 1430976,
      "componentType": 5126,
      "count": 10068,
      "max": [
        0.9999246001243591,
        0.9978986382484436
      ],
      "min": [
        5.76438287680503e-05,
        9.059906005859375e-05
      ],
      "type": "VEC2"
    },
    {
      "bufferView": 1,
      "byteOffset": 1511520,
      "componentType": 5126,
      "count": 10068,
      "max": [
        0.9999246001243591,
        0.9978986382484436
      ],
      "min": [
        5.76438287680503e-05,
        9.059906005859375e-05
      ],
      "type": "VEC2"
    },
    {
      "bufferView": 1,
      "byteOffset": 1592064,
      "componentType": 5126,
      "count": 10068,
      "max": [
        0.9999246001243591,
        0.9978986382484436
      ],
      "min": [
        5.76438287680503e-05,
        9.059906005859375e-05
      ],
      "type": "VEC2"
    },
    {
      "bufferView": 1,
      "byteOffset": 1672608,
      "componentType": 5126,
      "count": 10068,
      "max": [
        0.9999246001243591,
        0.9978986382484436
      ],
      "min": [
        5.76438287680503e-05,
        9.059906005859375e-05
      ],
      "type": "VEC2"
    },
    {
      "bufferView": 1,
      "byteOffset": 1753152,
      "componentType": 5126,
      "count": 10068,
      "max": [
        0.9999246001243591,
        0.9978986382484436
      ],
      "min": [
        5.76438287680503e-05,
        9.059906005859375e-05
      ],
      "type": "VEC2"
    },
    {
      "bufferView": 0,
      "byteOffset": 313452,
      "componentType": 5125,
      "count": 47817,
      "type": "SCALAR"
    },
    {
      "bufferView": 2,
      "byteOffset": 611232,
      "componentType": 5126,
      "count": 4371,
      "max": [
        581.9915161132813,
        527.0133056640625,
        494.4227294921875
      ],
      "min": [
        -548.1795654296875,
        -60.420413970947266,
        -51.41295623779297
      ],
      "type": "VEC3"
    },
    {
      "bufferView": 2,
      "byteOffset": 663684,
      "componentType": 5126,
      "count": 4371,
      "max": [
        1.0,
        0.9998424649238586,
        1.0
      ],
      "min": [
        -0.9999980926513672,
        -0.9999961853027344,
        -0.9985174536705017
      ],
      "type": "VEC3"
    },
    {
      "bufferView": 3,
      "byteOffset": 407488,
      "componentType": 5126,
      "count": 4371,
      "max": [
        0.9963379502296448,
        0.9999980926513672,
        0.9999903440475464,
        1.0
      ],
      "min": [
        -0.9392464756965637,
        -0.6195638179779053,
        -0.9996306896209717,
        -1.0
      ],
      "type": "VEC4"
    },
    {
      "bufferView": 1,
      "byteOffset": 1833696,
      "componentType": 5126,
      "count": 4371,
      "max": [
        0.4751003384590149,
        0.9999213814735413
      ],
      "min": [
        4.208087921142578e-05,
        7.867813110351563e-05
      ],
      "type": "VEC2"
    },
    {
      "bufferView": 1,
      "byteOffset": 1868664,
      "componentType": 5126,
      "count": 4371,
      "max": [
        0.4751003384590149,
        0.9999213814735413
      ],
      "min": [
        4.208087921142578e-05,
        7.867813110351563e-05
      ],
      "type": "VEC2"
    },
    {
      "bufferView": 1,
      "byteOffset": 1903632,
      "componentType": 5126,
      "count": 4371,
      "max": [
        0.4751003384590149,
        0.9999213814735413
      ],
      "min": [
        4.208087921142578e-05,
        7.867813110351563e-05
      ],
      "type": "VEC2"
    },
    {
      "bufferView": 1,
      "byteOffset": 1938600,
      "componentType": 5126,
      "count": 4371,
      "max": [
        0.4751003384590149,
        0.9999213814735413
      ],
      "min": [
        4.208087921142578e-05,
        7.867813110351563e-05
      ],
      "type": "VEC2"
    },
    {
      "bufferView": 1,
      "byteOffset": 1973568,
      "componentType": 5126,
      "count": 4371,
      "max": [
        0.4751003384590149,
        0.9999213814735413
      ],
      "min": [
        4.208087921142578e-05,
        7.867813110351563e-05
      ],
      "type": "VEC2"
    },
    {
      "bufferView": 1,
      "byteOffset": 2008536,
      "componentType": 5126,
      "count": 4371,
      "max": [
        0.4751003384590149,
        0.9999213814735413
      ],
      "min": [
        4.208087921142578e-05,
        7.867813110351563e-05
      ],
      "type": "VEC2"
    },
    {
      "bufferView": 1,
      "byteOffset": 2043504,
      "componentType": 5126,
      "count": 4371,
      "max": [
        0.4751003384590149,
        0.9999213814735413
      ],
      "min": [
        4.208087921142578e-05,
        7.867813110351563e-05
      ],
      "type": "VEC2"
    },
    {
      "bufferView": 1,
      "byteOffset": 2078472,
      "componentType": 5126,
      "count": 4371,
      "max": [
        0.4751003384590149,
        0.9999213814735413
      ],
      "min": [
        4.208087921142578e-05,
        7.867813110351563e-05
      ],
      "type": "VEC2"
    },
    {
      "bufferView": 1,
      "byteOffset": 2113440,
      "componentType": 5126,
      "count": 4371,
      "max": [
        0.4751003384590149,
        0.9999213814735413
      ],
      "min": [
        4.208087921142578e-05,
        7.867813110351563e-05
      ],
      "type": "VEC2"
    },
    {
      "bufferView": 0,
      "byteOffset": 504720,
      "componentType": 5125,
      "count": 23805,
      "type": "SCALAR"
    }
  ],
  "asset": {
    "extras": {
      "author": "MrUnity (https://sketchfab.com/MrUnityCreations)",
      "license": "CC-BY-4.0 (http://creativecommons.org/licenses/by/4.0/)",
      "source": "https://sketchfab.com/3d-models/old-building-3d-scan-f220479855da4aa0a5bbfda99e5a86e4",
      "title": "Old Building [3D Scan]"
    },
    "generator": "Sketchfab-12.66.0",
    "version": "2.0"
  },
  "bufferViews": [
    {
      "buffer": 0,
      "byteLength": 599940,
      "name": "floatBufferViews",
      "target": 34963
    },
    {
      "buffer": 0,
      "byteLength": 2148408,
      "byteOffset": 599940,
      "byteStride": 8,
      "name": "floatBufferViews",
      "target": 34962
    },
    {
      "buffer": 0,
      "byteLength": 716136,
      "byteOffset": 2748348,
      "byteStride": 12,
      "name": "floatBufferViews",
      "target": 34962
    },
    {
      "buffer": 0,
      "byteLength": 477424,
      "byteOffset": 3464484,
      "byteStride": 16,
      "name": "floatBufferViews",
      "target": 34962
    }
  ],
  "buffers": [
    {
      "byteLength": 3941908,
      "uri": "scene.bin"
    }
  ],
  "images": [
    {
      "uri": "textures/material3_baseColor.jpeg"
    },
    {
      "uri": "textures/material3_metallicRoughness.png"
    },
    {
      "uri": "textures/material3_normal.png"
    },
    {
      "uri": "textures/material2_baseColor.jpeg"
    },
    {
      "uri": "textures/material2_metallicRoughness.png"
    },
    {
      "uri": "textures/material2_normal.png"
    },
    {
      "uri": "textures/material1_baseColor.jpeg"
    },
    {
      "uri": "textures/material1_metallicRoughness.png"
    },
    {
      "uri": "textures/material1_normal.png"
    },
    {
      "uri": "textures/material0_baseColor.jpeg"
    },
    {
      "uri": "textures/material0_metallicRoughness.png"
    },
    {
      "uri": "textures/material0_normal.png"
    }
  ],
  "materials": [
    {
      "doubleSided": true,
      "name": "material3",
      "normalTexture": {
        "index": 2
      },
      "occlusionTexture": {
        "index": 1
      },
      "pbrMetallicRoughness": {
        "baseColorTexture": {
          "index": 0
        },
        "metallicFactor": 0.0,
        "metallicRoughnessTexture": {
          "index": 1
        }
      }
    },
    {
      "doubleSided": true,
      "name": "material2",
      "normalTexture": {
        "index": 5
      },
      "occlusionTexture": {
        "index": 4
      },
      "pbrMetallicRoughness": {
        "baseColorTexture": {
          "index": 3
        },
        "metallicFactor": 0.0,
        "metallicRoughnessTexture": {
          "index": 4
        }
      }
    },
    {
      "doubleSided": true,
      "name": "material1",
      "normalTexture": {
        "index": 8
      },
      "occlusionTexture": {
        "index": 7
      },
      "pbrMetallicRoughness": {
        "baseColorTexture": {
          "index": 6
        },
        "metallicFactor": 0.0,
        "metallicRoughnessTexture": {
          "index": 7
        }
      }
    },
    {
      "doubleSided": true,
      "name": "material0",
      "normalTexture": {
        "index": 11
      },
      "occlusionTexture": {
        "index": 10
      },
      "pbrMetallicRoughness": {
        "baseColorTexture": {
          "index": 9
        },
        "metallicFactor": 0.0,
        "metallicRoughnessTexture": {
          "index": 10
        }
      }
    }
  ],
  "meshes": [
    {
      "name": "Model_material3_0",
      "primitives": [
        {
          "attributes": {
            "NORMAL": 1,
            "POSITION": 0,
            "TANGENT": 2,
            "TEXCOORD_0": 3,
            "TEXCOORD_1": 4,
            "TEXCOORD_2": 5,
            "TEXCOORD_3": 6,
            "TEXCOORD_4": 7,
            "TEXCOORD_5": 8,
            "TEXCOORD_6": 9,
            "TEXCOORD_7": 10,
            "TEXCOORD_8": 11
          },
          "indices": 12,
          "material": 0,
          "mode": 4
        }
      ]
    },
    {
      "name": "Model_material2_0",
      "primitives": [
        {
          "attributes": {
            "NORMAL": 14,
            "POSITION": 13,
            "TANGENT": 15,
            "TEXCOORD_0": 16,
            "TEXCOORD_1": 17,
            "TEXCOORD_2": 18,
            "TEXCOORD_3": 19,
            "TEXCOORD_4": 20,
            "TEXCOORD_5": 21,
            "TEXCOORD_6": 22,
            "TEXCOORD_7": 23,
            "TEXCOORD_8": 24
          },
          "indices": 25,
          "material": 1,
          "mode": 4
        }
      ]
    },
    {
      "name": "Model_material1_0",
      "primitives": [
        {
          "attributes": {
            "NORMAL": 27,
            "POSITION": 26,
            "TANGENT": 28,
            "TEXCOORD_0": 29,
            "TEXCOORD_1": 30,
            "TEXCOORD_2": 31,
            "TEXCOORD_3": 32,
            "TEXCOORD_4": 33,
            "TEXCOORD_5": 34,
            "TEXCOORD_6": 35,
            "TEXCOORD_7": 36,
            "TEXCOORD_8": 37
          },
          "indices": 38,
          "material": 2,
          "mode": 4
        }
      ]
    },
    {
      "name": "Model_material0_0",
      "primitives": [
        {
          "attributes": {
            "NORMAL": 40,
            "POSITION": 39,
            "TANGENT": 41,
            "TEXCOORD_0": 42,
            "TEXCOORD_1": 43,
            "TEXCOORD_2": 44,
            "TEXCOORD_3": 45,
            "TEXCOORD_4": 46,
            "TEXCOORD_5": 47,
            "TEXCOORD_6": 48,
            "TEXCOORD_7": 49,
            "TEXCOORD_8": 50
          },
          "indices": 51,
          "material": 3,
          "mode": 4
        }
      ]
    }
  ],
  "nodes": [
    {
      "children": [
        1
      ],
      "matrix": [
        0.01052870787680149,
        0.0,
        0.0,
        0.0,
        0.0,
        2.3378427808754522e-18,
        -0.01052870787680149,
        0.0,
        0.0,
        0.01052870787680149,
        2.3378427808754522e-18,
        0.0,
        0.0,
        0.0,
        0.0,
        1.0
      ],
      "name": "Sketchfab_model"
    },
    {
      "children": [
        2
      ],
      "matrix": [
        1.0,
        0.0,
        0.0,
        0.0,
        0.0,
        0.0,
        1.0,
        0.0,
        0.0,
        -1.0,
        0.0,
        0.0,
        0.0,
        0.0,
        0.0,
        1.0
      ],
      "name": "7a2a5b2df1714b3b8c4317febf8a8012.fbx"
    },
    {
      "children": [
        3
      ],
      "name": "RootNode"
    },
    {
      "children": [
        4
      ],
      "name": "Electro_building_drone_2"
    },
    {
      "children": [
        5,
        6,
        7,
        8
      ],
      "matrix": [
        1.0,
        0.0,
        0.0,
        0.0,
        0.0,
        -2.220446049250313e-16,
        -1.0,
        0.0,
        0.0,
        1.0,
        -2.220446049250313e-16,
        0.0,
        0.0,
        39.550907135009766,
        2.4217944629003696e-15,
        1.0
      ],
      "name": "Model"
    },
    {
      "mesh": 0,
      "name": "Model_material3_0"
    },
    {
      "mesh": 1,
      "name": "Model_material2_0"
    },
    {
      "mesh": 2,
      "name": "Model_material1_0"
    },
    {
      "mesh": 3,
      "name": "Model_material0_0"
    }
  ],
  "samplers": [
    {
      "magFilter": 9729,
      "minFilter": 9987,
      "wrapS": 10497,
      "wrapT": 10497
    }
  ],
  "scene": 0,
  "scenes": [
    {
      "name": "Sketchfab_Scene",
      "nodes": [
        0
      ]
    }
  ],
  "textures": [
    {
      "sampler": 0,
      "source": 0
    },
    {
      "sampler": 0,
      "source": 1
    },
    {
      "sampler": 0,
      "source": 2
    },
    {
      "sampler": 0,
      "source": 3
    },
    {
      "sampler": 0,
      "source": 4
    },
    {
      "sampler": 0,
      "source": 5
    },
    {
      "sampler": 0,
      "source": 6
    },
    {
      "sampler": 0,
      "source": 7
    },
    {
      "sampler": 0,
      "source": 8
    },
    {
      "sampler": 0,
      "source": 9
    },
    {
      "sampler": 0,
      "source": 10
    },
    {
      "sampler": 0,
      "source": 11
    }
  ]
}
