<svg width="800" height="800" viewBox="0 0 800 800" fill="none" xmlns="http://www.w3.org/2000/svg">
<path fill-rule="evenodd" clip-rule="evenodd" d="M290 148.808V340H260V126.541L288.395 111.615L729 405.352V436.148L460 615.466V579.505L698.031 421.008L290 148.808Z" fill="#00FF00"/>
<path d="M327.147 457.946C327.147 457.946 327.147 457.946 327.147 457.946Z" fill="#00FF00"/>
<path fill-rule="evenodd" clip-rule="evenodd" d="M375.873 482.489L386.174 492.653V542.308H431V567.674H386.174V578.801C384.057 592.629 380.187 606.136 374.653 619.002L372.305 624.461L427.354 679.966L408.113 699.054L358.008 649.321L351.896 657.057C340.964 670.892 327.083 682.158 311.246 690.043C295.469 697.897 278.143 702.202 260.499 702.65C242.854 702.208 225.526 697.905 209.75 690.051C193.912 682.166 180.033 670.898 169.106 657.059L162.995 649.319L112.887 699.054L93.6457 679.966L148.702 624.454L146.342 618.99C140.892 606.371 137.016 593.193 134.826 579.654V569.189H90V542.308H134.826V492.653L145.127 482.489L93.6949 431.438L112.884 412.401L157.107 456.335L160.874 441.328C166.412 419.267 179.217 399.667 197.267 385.651C215.319 371.634 237.577 364.01 260.504 364L260.507 364C283.438 363.981 305.708 371.594 323.762 385.613C341.816 399.632 354.613 419.245 360.123 441.317L363.877 456.351L408.116 412.401L427.305 431.438L375.873 482.489ZM231.422 396.908C240.646 393.122 250.529 391.18 260.507 391.192C280.645 391.194 299.97 399.138 314.232 413.297C328.498 427.46 336.529 446.683 336.543 466.744L336.549 475.554H184.463L184.457 466.756C184.451 456.819 186.417 446.979 190.242 437.801C194.067 428.622 199.675 420.287 206.742 413.271C213.809 406.255 222.196 400.696 231.422 396.908ZM358.915 578.833L358.956 578.414V502.39H162.044V578.372L162.085 578.794C164.492 603.715 175.56 627.015 193.374 644.694C211.186 662.372 234.629 673.326 259.673 675.689L260.495 675.766L261.317 675.689C286.366 673.356 309.822 662.416 327.64 644.741C345.459 627.064 356.525 603.758 358.915 578.833Z" fill="#00FF00"/>
</svg>
