{
  "accessors": [
    {
      "bufferView": 2,
      "componentType": 5126,
      "count": 4698,
      "max": [
        37.351715087890625,
        83.94190216064453,
        79.46098327636719
      ],
      "min": [
        -37.351715087890625,
        -0.006689429748803377,
        -79.46098327636719
      ],
      "type": "VEC3"
    },
    {
      "bufferView": 2,
      "byteOffset": 56376,
      "componentType": 5126,
      "count": 4698,
      "max": [
        1.0,
        1.0,
        1.0
      ],
      "min": [
        -1.0,
        -1.0,
        -1.0
      ],
      "type": "VEC3"
    },
    {
      "bufferView": 3,
      "componentType": 5126,
      "count": 4698,
      "max": [
        1.0,
        0.9999992251396179,
        0.999995231628418,
        1.0
      ],
      "min": [
        -1.0,
        -0.9999991655349731,
        -1.0,
        -1.0
      ],
      "type": "VEC4"
    },
    {
      "bufferView": 1,
      "componentType": 5126,
      "count": 4698,
      "max": [
        0.9957190155982971,
        0.9916602969169617
      ],
      "min": [
        0.00427917530760169,
        0.004275609273463488
      ],
      "type": "VEC2"
    },
    {
      "bufferView": 1,
      "byteOffset": 37584,
      "componentType": 5126,
      "count": 4698,
      "max": [
        0.9965313673019409,
        0.9890849590301514
      ],
      "min": [
        0.0034495601430535316,
        0.0034500095061957836
      ],
      "type": "VEC2"
    },
    {
      "bufferView": 1,
      "byteOffset": 75168,
      "componentType": 5126,
      "count": 4698,
      "max": [
        0.9957190155982971,
        0.9916602969169617
      ],
      "min": [
        0.00427917530760169,
        0.004275609273463488
      ],
      "type": "VEC2"
    },
    {
      "bufferView": 0,
      "componentType": 5125,
      "count": 18216,
      "type": "SCALAR"
    }
  ],
  "asset": {
    "extras": {
      "author": "Gerhald (https://sketchfab.com/Gerhald)",
      "license": "CC-BY-4.0 (http://creativecommons.org/licenses/by/4.0/)",
      "source": "https://sketchfab.com/3d-models/wheelbarrow-construction-cart-c24b9d6259ea46018a55dd4190a40ed7",
      "title": "Wheelbarrow Construction Cart"
    },
    "generator": "Sketchfab-16.75.0",
    "version": "2.0"
  },
  "bufferViews": [
    {
      "buffer": 0,
      "byteLength": 72864,
      "name": "floatBufferViews",
      "target": 34963
    },
    {
      "buffer": 0,
      "byteLength": 112752,
      "byteOffset": 72864,
      "byteStride": 8,
      "name": "floatBufferViews",
      "target": 34962
    },
    {
      "buffer": 0,
      "byteLength": 112752,
      "byteOffset": 185616,
      "byteStride": 12,
      "name": "floatBufferViews",
      "target": 34962
    },
    {
      "buffer": 0,
      "byteLength": 75168,
      "byteOffset": 298368,
      "byteStride": 16,
      "name": "floatBufferViews",
      "target": 34962
    }
  ],
  "buffers": [
    {
      "byteLength": 373536,
      "uri": "scene.bin"
    }
  ],
  "images": [
    {
      "uri": "textures/MI_Wheelbarrow01_baseColor.png"
    },
    {
      "uri": "textures/MI_Wheelbarrow01_metallicRoughness.png"
    },
    {
      "uri": "textures/MI_Wheelbarrow01_normal.png"
    }
  ],
  "materials": [
    {
      "doubleSided": true,
      "name": "MI_Wheelbarrow01",
      "normalTexture": {
        "index": 2
      },
      "occlusionTexture": {
        "index": 1
      },
      "pbrMetallicRoughness": {
        "baseColorTexture": {
          "index": 0
        },
        "metallicRoughnessTexture": {
          "index": 1
        }
      }
    }
  ],
  "meshes": [
    {
      "name": "Wheelbarrow01_MI_Wheelbarrow01_0",
      "primitives": [
        {
          "attributes": {
            "NORMAL": 1,
            "POSITION": 0,
            "TANGENT": 2,
            "TEXCOORD_0": 3,
            "TEXCOORD_1": 4,
            "TEXCOORD_2": 5
          },
          "indices": 6,
          "material": 0,
          "mode": 4
        }
      ]
    }
  ],
  "nodes": [
    {
      "children": [
        1
      ],
      "matrix": [
        1.0,
        0.0,
        0.0,
        0.0,
        0.0,
        2.220446049250313e-16,
        -1.0,
        0.0,
        0.0,
        1.0,
        2.220446049250313e-16,
        0.0,
        0.0,
        0.0,
        0.0,
        1.0
      ],
      "name": "Sketchfab_model"
    },
    {
      "children": [
        2
      ],
      "matrix": [
        0.009999999776482582,
        0.0,
        0.0,
        0.0,
        0.0,
        0.0,
        0.009999999776482582,
        0.0,
        0.0,
        -0.009999999776482582,
        0.0,
        0.0,
        0.0,
        0.0,
        0.0,
        1.0
      ],
      "name": "2146b3552c7e45eabcea49c4d830601c.fbx"
    },
    {
      "children": [
        3
      ],
      "name": "RootNode"
    },
    {
      "children": [
        4
      ],
      "name": "Wheelbarrow01"
    },
    {
      "mesh": 0,
      "name": "Wheelbarrow01_MI_Wheelbarrow01_0"
    }
  ],
  "samplers": [
    {
      "magFilter": 9729,
      "minFilter": 9987,
      "wrapS": 10497,
      "wrapT": 10497
    }
  ],
  "scene": 0,
  "scenes": [
    {
      "name": "Sketchfab_Scene",
      "nodes": [
        0
      ]
    }
  ],
  "textures": [
    {
      "sampler": 0,
      "source": 0
    },
    {
      "sampler": 0,
      "source": 1
    },
    {
      "sampler": 0,
      "source": 2
    }
  ]
}
