{
  "accessors": [
    {
      "bufferView": 2,
      "componentType": 5126,
      "count": 4801,
      "max": [
        182.22744750976563,
        348.05126953125,
        105.32677459716797
      ],
      "min": [
        -28.426034927368164,
        -466.69970703125,
        -105.32669830322266
      ],
      "type": "VEC3"
    },
    {
      "bufferView": 2,
      "byteOffset": 57612,
      "componentType": 5126,
      "count": 4801,
      "max": [
        0.9999999403953552,
        0.9999438524246216,
        0.9999999403953552
      ],
      "min": [
        -0.9999999403953552,
        -1.0,
        -0.9999999403953552
      ],
      "type": "VEC3"
    },
    {
      "bufferView": 0,
      "componentType": 5125,
      "count": 26688,
      "type": "SCALAR"
    },
    {
      "bufferView": 2,
      "byteOffset": 115224,
      "componentType": 5126,
      "count": 54,
      "max": [
        177.64724731445313,
        -58.778106689453125,
        105.28112030029297
      ],
      "min": [
        -23.845836639404297,
        -355.2738952636719,
        30.514711380004883
      ],
      "type": "VEC3"
    },
    {
      "bufferView": 2,
      "byteOffset": 115872,
      "componentType": 5126,
      "count": 54,
      "max": [
        0.9415841102600098,
        0.0005395188345573843,
        0.9999999403953552
      ],
      "min": [
        -0.941584050655365,
        0.0005386681295931339,
        0.33677759766578674
      ],
      "type": "VEC3"
    },
    {
      "bufferView": 1,
      "componentType": 5126,
      "count": 54,
      "max": [
        0.697060763835907,
        0.9981348514556885
      ],
      "min": [
        0.0007186285802163184,
        0.0033027408644557
      ],
      "type": "VEC2"
    },
    {
      "bufferView": 0,
      "byteOffset": 106752,
      "componentType": 5125,
      "count": 156,
      "type": "SCALAR"
    },
    {
      "bufferView": 2,
      "byteOffset": 116520,
      "componentType": 5126,
      "count": 54,
      "max": [
        177.64724731445313,
        -58.778106689453125,
        105.28112030029297
      ],
      "min": [
        -23.845836639404297,
        -355.2738952636719,
        30.514711380004883
      ],
      "type": "VEC3"
    },
    {
      "bufferView": 2,
      "byteOffset": 117168,
      "componentType": 5126,
      "count": 54,
      "max": [
        0.941584050655365,
        -0.0005386681295931339,
        -0.33677756786346436
      ],
      "min": [
        -0.9415841102600098,
        -0.0005395188345573843,
        -0.9999999403953552
      ],
      "type": "VEC3"
    },
    {
      "bufferView": 1,
      "byteOffset": 432,
      "componentType": 5126,
      "count": 54,
      "max": [
        0.697060763835907,
        0.9981348514556885
      ],
      "min": [
        0.0007186285802163184,
        0.0033027408644557
      ],
      "type": "VEC2"
    },
    {
      "bufferView": 0,
      "byteOffset": 107376,
      "componentType": 5125,
      "count": 156,
      "type": "SCALAR"
    },
    {
      "bufferView": 2,
      "byteOffset": 117816,
      "componentType": 5126,
      "count": 4048,
      "max": [
        12.982912063598633,
        13.927558898925781,
        0.6529722213745117
      ],
      "min": [
        -13.327566146850586,
        -6.236294746398926,
        -25.87105941772461
      ],
      "type": "VEC3"
    },
    {
      "bufferView": 2,
      "byteOffset": 166392,
      "componentType": 5126,
      "count": 4048,
      "max": [
        1.0,
        1.0,
        1.0
      ],
      "min": [
        -1.0,
        -1.0,
        -1.0
      ],
      "type": "VEC3"
    },
    {
      "bufferView": 3,
      "componentType": 5126,
      "count": 4048,
      "max": [
        0.9438536763191223,
        0.9999997615814209,
        1.0,
        1.0
      ],
      "min": [
        -0.9465644955635071,
        -1.0,
        -1.0,
        1.0
      ],
      "type": "VEC4"
    },
    {
      "bufferView": 1,
      "byteOffset": 864,
      "componentType": 5126,
      "count": 4048,
      "max": [
        0.999500036239624,
        0.9987941384315491
      ],
      "min": [
        0.0005000000237487257,
        0.0005000000237487257
      ],
      "type": "VEC2"
    },
    {
      "bufferView": 1,
      "byteOffset": 33248,
      "componentType": 5126,
      "count": 4048,
      "max": [
        0.999500036239624,
        0.9987941384315491
      ],
      "min": [
        0.0005000000237487257,
        0.0005000000237487257
      ],
      "type": "VEC2"
    },
    {
      "bufferView": 1,
      "byteOffset": 65632,
      "componentType": 5126,
      "count": 4048,
      "max": [
        0.999500036239624,
        0.9987941384315491
      ],
      "min": [
        0.0005000000237487257,
        0.0005000000237487257
      ],
      "type": "VEC2"
    },
    {
      "bufferView": 1,
      "byteOffset": 98016,
      "componentType": 5126,
      "count": 4048,
      "max": [
        0.999500036239624,
        0.9987941384315491
      ],
      "min": [
        0.0005000000237487257,
        0.0005000000237487257
      ],
      "type": "VEC2"
    },
    {
      "bufferView": 1,
      "byteOffset": 130400,
      "componentType": 5126,
      "count": 4048,
      "max": [
        0.999500036239624,
        0.9987941384315491
      ],
      "min": [
        0.0005000000237487257,
        0.0005000000237487257
      ],
      "type": "VEC2"
    },
    {
      "bufferView": 1,
      "byteOffset": 162784,
      "componentType": 5126,
      "count": 4048,
      "max": [
        0.999500036239624,
        0.9987941384315491
      ],
      "min": [
        0.0005000000237487257,
        0.0005000000237487257
      ],
      "type": "VEC2"
    },
    {
      "bufferView": 1,
      "byteOffset": 195168,
      "componentType": 5126,
      "count": 4048,
      "max": [
        0.999500036239624,
        0.9987941384315491
      ],
      "min": [
        0.0005000000237487257,
        0.0005000000237487257
      ],
      "type": "VEC2"
    },
    {
      "bufferView": 1,
      "byteOffset": 227552,
      "componentType": 5126,
      "count": 4048,
      "max": [
        0.999500036239624,
        0.9987941384315491
      ],
      "min": [
        0.0005000000237487257,
        0.0005000000237487257
      ],
      "type": "VEC2"
    },
    {
      "bufferView": 1,
      "byteOffset": 259936,
      "componentType": 5126,
      "count": 4048,
      "max": [
        0.999500036239624,
        0.9987941384315491
      ],
      "min": [
        0.0005000000237487257,
        0.0005000000237487257
      ],
      "type": "VEC2"
    },
    {
      "bufferView": 1,
      "byteOffset": 292320,
      "componentType": 5126,
      "count": 4048,
      "max": [
        0.999500036239624,
        0.9987941384315491
      ],
      "min": [
        0.0005000000237487257,
        0.0005000000237487257
      ],
      "type": "VEC2"
    },
    {
      "bufferView": 0,
      "byteOffset": 108000,
      "componentType": 5125,
      "count": 19992,
      "type": "SCALAR"
    },
    {
      "bufferView": 2,
      "byteOffset": 214968,
      "componentType": 5126,
      "count": 3823,
      "max": [
        178.0824432373047,
        108.15577697753906,
        101.18177795410156
      ],
      "min": [
        -24.281036376953125,
        -462.6640319824219,
        -101.18170166015625
      ],
      "type": "VEC3"
    },
    {
      "bufferView": 2,
      "byteOffset": 260844,
      "componentType": 5126,
      "count": 3823,
      "max": [
        0.9999998807907104,
        1.0,
        0.9999998807907104
      ],
      "min": [
        -0.9999998807907104,
        -1.0,
        -0.9999999403953552
      ],
      "type": "VEC3"
    },
    {
      "bufferView": 0,
      "byteOffset": 187968,
      "componentType": 5125,
      "count": 20346,
      "type": "SCALAR"
    },
    {
      "bufferView": 2,
      "byteOffset": 306720,
      "componentType": 5126,
      "count": 4673,
      "max": [
        178.0824432373047,
        348.00732421875,
        101.18177795410156
      ],
      "min": [
        -24.281036376953125,
        -462.6640319824219,
        -101.18170166015625
      ],
      "type": "VEC3"
    },
    {
      "bufferView": 2,
      "byteOffset": 362796,
      "componentType": 5126,
      "count": 4673,
      "max": [
        0.9999999403953552,
        1.0,
        0.9999999403953552
      ],
      "min": [
        -0.9999999403953552,
        -0.45851650834083557,
        -0.9999999403953552
      ],
      "type": "VEC3"
    },
    {
      "bufferView": 0,
      "byteOffset": 269352,
      "componentType": 5125,
      "count": 25920,
      "type": "SCALAR"
    }
  ],
  "asset": {
    "extras": {
      "author": "Valger (https://sketchfab.com/Valger)",
      "license": "CC-BY-NC-ND-4.0 (http://creativecommons.org/licenses/by-nc-nd/4.0/)",
      "source": "https://sketchfab.com/3d-models/a-sovietrussian-vodka-8c8789ba575a4e959559898afbdaed7a",
      "title": "A soviet/russian vodka. Русская водка."
    },
    "generator": "Sketchfab-14.64.0",
    "version": "2.0"
  },
  "bufferViews": [
    {
      "buffer": 0,
      "byteLength": 373032,
      "name": "floatBufferViews",
      "target": 34963
    },
    {
      "buffer": 0,
      "byteLength": 324704,
      "byteOffset": 373032,
      "byteStride": 8,
      "name": "floatBufferViews",
      "target": 34962
    },
    {
      "buffer": 0,
      "byteLength": 418872,
      "byteOffset": 697736,
      "byteStride": 12,
      "name": "floatBufferViews",
      "target": 34962
    },
    {
      "buffer": 0,
      "byteLength": 64768,
      "byteOffset": 1116608,
      "byteStride": 16,
      "name": "floatBufferViews",
      "target": 34962
    }
  ],
  "buffers": [
    {
      "byteLength": 1181376,
      "uri": "scene.bin"
    }
  ],
  "extensionsUsed": [
    "KHR_materials_clearcoat",
    "KHR_materials_specular",
    "KHR_materials_emissive_strength",
    "KHR_materials_transmission"
  ],
  "images": [
    {
      "uri": "textures/Material_29_baseColor.jpeg"
    },
    {
      "uri": "textures/Material_31_baseColor.jpeg"
    },
    {
      "uri": "textures/Material_31_metallicRoughness.png"
    },
    {
      "uri": "textures/Material_31_normal.png"
    }
  ],
  "materials": [
    {
      "alphaMode": "BLEND",
      "extensions": {
        "KHR_materials_clearcoat": {
          "clearcoatFactor": 1.0,
          "clearcoatRoughnessFactor": 0.04
        },
        "KHR_materials_specular": {
          "specularColorFactor": [
            1.0,
            1.0,
            1.0
          ],
          "specularFactor": 1.0
        }
      },
      "name": "bottle_outside",
      "pbrMetallicRoughness": {
        "baseColorFactor": [
          0.588,
          0.588,
          0.588,
          0.10546729884080419
        ],
        "metallicFactor": 0.0,
        "roughnessFactor": 0.0
      }
    },
    {
      "doubleSided": true,
      "name": "Material_29",
      "pbrMetallicRoughness": {
        "baseColorTexture": {
          "index": 0
        },
        "metallicFactor": 0.0
      }
    },
    {
      "doubleSided": true,
      "extensions": {
        "KHR_materials_specular": {
          "specularColorFactor": [
            1.0,
            1.0,
            1.0
          ],
          "specularFactor": 0.0
        }
      },
      "name": "Material_30",
      "pbrMetallicRoughness": {
        "baseColorFactor": [
          0.588,
          0.588,
          0.588,
          1.0
        ],
        "metallicFactor": 0.0
      }
    },
    {
      "doubleSided": true,
      "extensions": {
        "KHR_materials_specular": {
          "specularColorFactor": [
            1.0,
            1.0,
            1.0
          ],
          "specularFactor": 0.8169780313190653
        }
      },
      "name": "Material_31",
      "normalTexture": {
        "index": 3
      },
      "pbrMetallicRoughness": {
        "baseColorTexture": {
          "index": 1
        },
        "metallicFactor": 0.6847503730708929,
        "metallicRoughnessTexture": {
          "index": 2
        }
      }
    },
    {
      "alphaMode": "BLEND",
      "doubleSided": true,
      "extensions": {
        "KHR_materials_emissive_strength": {
          "emissiveStrength": 10.0
        },
        "KHR_materials_specular": {
          "specularColorFactor": [
            1.0,
            1.0,
            1.0
          ],
          "specularFactor": 1.0
        }
      },
      "name": "Material_28",
      "pbrMetallicRoughness": {
        "baseColorFactor": [
          0.32776654676343386,
          0.5840054905960949,
          0.3431251057157566,
          0.07398452306742981
        ],
        "metallicFactor": 0.0,
        "roughnessFactor": 0.0
      }
    },
    {
      "alphaMode": "BLEND",
      "extensions": {
        "KHR_materials_clearcoat": {
          "clearcoatFactor": 1.0,
          "clearcoatRoughnessFactor": 0.04
        },
        "KHR_materials_specular": {
          "specularColorFactor": [
            1.0,
            1.0,
            1.0
          ],
          "specularFactor": 1.0
        },
        "KHR_materials_transmission": {
          "transmissionFactor": 1.0
        }
      },
      "name": "bottle_outside_0",
      "pbrMetallicRoughness": {
        "baseColorFactor": [
          1.0,
          0.0,
          0.0,
          0.25
        ],
        "metallicFactor": 0.0,
        "roughnessFactor": 0.0
      }
    }
  ],
  "meshes": [
    {
      "name": "bottle_bottle outside_0",
      "primitives": [
        {
          "attributes": {
            "NORMAL": 1,
            "POSITION": 0
          },
          "indices": 2,
          "material": 0,
          "mode": 4
        }
      ]
    },
    {
      "name": "etiketka_Material #29_0",
      "primitives": [
        {
          "attributes": {
            "NORMAL": 4,
            "POSITION": 3,
            "TEXCOORD_0": 5
          },
          "indices": 6,
          "material": 1,
          "mode": 4
        }
      ]
    },
    {
      "name": "etiketka001_Material #30_0",
      "primitives": [
        {
          "attributes": {
            "NORMAL": 8,
            "POSITION": 7,
            "TEXCOORD_0": 9
          },
          "indices": 10,
          "material": 2,
          "mode": 4
        }
      ]
    },
    {
      "name": "Plane005_Material #31_0",
      "primitives": [
        {
          "attributes": {
            "NORMAL": 12,
            "POSITION": 11,
            "TANGENT": 13,
            "TEXCOORD_0": 14,
            "TEXCOORD_1": 15,
            "TEXCOORD_2": 16,
            "TEXCOORD_3": 17,
            "TEXCOORD_4": 18,
            "TEXCOORD_5": 19,
            "TEXCOORD_6": 20,
            "TEXCOORD_7": 21,
            "TEXCOORD_8": 22,
            "TEXCOORD_9": 23
          },
          "indices": 24,
          "material": 3,
          "mode": 4
        }
      ]
    },
    {
      "name": "bottle001_Material #28_0",
      "primitives": [
        {
          "attributes": {
            "NORMAL": 26,
            "POSITION": 25
          },
          "indices": 27,
          "material": 4,
          "mode": 4
        }
      ]
    },
    {
      "name": "Object001_bottle outside_0",
      "primitives": [
        {
          "attributes": {
            "NORMAL": 29,
            "POSITION": 28
          },
          "indices": 30,
          "material": 5,
          "mode": 4
        }
      ]
    }
  ],
  "nodes": [
    {
      "children": [
        1
      ],
      "matrix": [
        1.0,
        0.0,
        0.0,
        0.0,
        0.0,
        2.220446049250313e-16,
        -1.0,
        0.0,
        0.0,
        1.0,
        2.220446049250313e-16,
        0.0,
        0.0,
        0.0,
        0.0,
        1.0
      ],
      "name": "Sketchfab_model"
    },
    {
      "children": [
        2
      ],
      "matrix": [
        0.0010000000474974513,
        0.0,
        0.0,
        0.0,
        0.0,
        0.0,
        0.0010000000474974513,
        0.0,
        0.0,
        -0.0010000000474974513,
        0.0,
        0.0,
        0.0,
        0.0,
        0.0,
        1.0
      ],
      "name": "166d5851ded642d3b69a2f637a493a22.fbx"
    },
    {
      "children": [
        3,
        6,
        9,
        12,
        15,
        18
      ],
      "name": "RootNode"
    },
    {
      "children": [
        4
      ],
      "matrix": [
        1.0,
        0.0,
        0.0,
        0.0,
        0.0,
        0.9999999999999867,
        1.6292068494294582e-07,
        0.0,
        0.0,
        -1.6292068494294582e-07,
        0.9999999999999867,
        0.0,
        121.98365783691406,
        54.45439147949219,
        -0.6624274253845215,
        1.0
      ],
      "name": "bottle"
    },
    {
      "children": [
        5
      ],
      "matrix": [
        1.0,
        0.0,
        -0.0,
        0.0,
        0.0,
        1.0,
        0.0,
        0.0,
        0.0,
        0.0,
        1.0,
        0.0,
        -76.90070343017578,
        0.0,
        0.0,
        1.0
      ],
      "name": "Object_4"
    },
    {
      "mesh": 0,
      "name": "bottle_bottle outside_0"
    },
    {
      "children": [
        7
      ],
      "matrix": [
        1.0008000135421753,
        0.0,
        0.0,
        0.0,
        0.0,
        1.000800013542162,
        1.630510270305343e-07,
        0.0,
        0.0,
        -1.630510270305343e-07,
        1.000800013542162,
        0.0,
        121.983642578125,
        -173.2794189453125,
        52.747352600097656,
        1.0
      ],
      "name": "etiketka"
    },
    {
      "children": [
        8
      ],
      "matrix": [
        1.0,
        0.0,
        -0.0,
        0.0,
        0.0,
        1.0,
        0.0,
        0.0,
        0.0,
        0.0,
        1.0,
        0.0,
        -76.90070343017578,
        227.73379516601563,
        -52.663387298583984,
        1.0
      ],
      "name": "Object_7"
    },
    {
      "mesh": 1,
      "name": "etiketka_Material #29_0"
    },
    {
      "children": [
        10
      ],
      "matrix": [
        1.0008000135421753,
        0.0,
        0.0,
        0.0,
        0.0,
        1.000800013542162,
        1.630510270305343e-07,
        0.0,
        0.0,
        -1.630510270305343e-07,
        1.000800013542162,
        0.0,
        121.983642578125,
        -173.2794189453125,
        50.45250701904297,
        1.0
      ],
      "name": "etiketka001"
    },
    {
      "children": [
        11
      ],
      "matrix": [
        1.0,
        0.0,
        -0.0,
        0.0,
        0.0,
        1.0,
        0.0,
        0.0,
        0.0,
        0.0,
        1.0,
        0.0,
        -76.90070343017578,
        227.73379516601563,
        -52.663387298583984,
        1.0
      ],
      "name": "Object_10"
    },
    {
      "mesh": 2,
      "name": "etiketka001_Material #30_0"
    },
    {
      "children": [
        13
      ],
      "matrix": [
        -2.5242427223075867,
        3.0913058811657353e-16,
        -2.118089983770749,
        0.0,
        3.450806461928914e-07,
        3.2951641082763232,
        -4.1125132332302693e-07,
        0.0,
        2.118089983770721,
        -5.368503546723651e-07,
        -2.524242722307553,
        0.0,
        121.82494354248047,
        434.4581298828125,
        -0.9691416025161743,
        1.0
      ],
      "name": "Plane005"
    },
    {
      "children": [
        14
      ],
      "matrix": [
        1.0,
        0.0,
        -0.0,
        0.0,
        0.0,
        1.0,
        0.0,
        0.0,
        0.0,
        0.0,
        1.0,
        0.0,
        0.17232543230056763,
        -3.845632553100586,
        12.609042167663574,
        1.0
      ],
      "name": "Object_13"
    },
    {
      "mesh": 3,
      "name": "Plane005_Material #31_0"
    },
    {
      "children": [
        16
      ],
      "matrix": [
        1.0,
        0.0,
        0.0,
        0.0,
        0.0,
        0.9999999999999867,
        1.6292068494294582e-07,
        0.0,
        0.0,
        -1.6292068494294582e-07,
        0.9999999999999867,
        0.0,
        121.98365783691406,
        54.45439147949219,
        -0.6624274253845215,
        1.0
      ],
      "name": "bottle001"
    },
    {
      "children": [
        17
      ],
      "matrix": [
        1.0,
        0.0,
        -0.0,
        0.0,
        0.0,
        1.0,
        0.0,
        0.0,
        0.0,
        0.0,
        1.0,
        0.0,
        -76.90070343017578,
        0.0,
        0.0,
        1.0
      ],
      "name": "Object_16"
    },
    {
      "mesh": 4,
      "name": "bottle001_Material #28_0"
    },
    {
      "children": [
        19
      ],
      "matrix": [
        1.0,
        0.0,
        0.0,
        0.0,
        0.0,
        0.9999999999999867,
        1.6292068494294582e-07,
        0.0,
        0.0,
        -1.6292068494294582e-07,
        0.9999999999999867,
        0.0,
        121.98365783691406,
        54.45439147949219,
        -0.6624274253845215,
        1.0
      ],
      "name": "Object001"
    },
    {
      "children": [
        20
      ],
      "matrix": [
        1.0,
        0.0,
        -0.0,
        0.0,
        0.0,
        1.0,
        0.0,
        0.0,
        0.0,
        0.0,
        1.0,
        0.0,
        -76.90070343017578,
        0.0,
        0.0,
        1.0
      ],
      "name": "Object_19"
    },
    {
      "mesh": 5,
      "name": "Object001_bottle outside_0"
    }
  ],
  "samplers": [
    {
      "magFilter": 9729,
      "minFilter": 9987,
      "wrapS": 10497,
      "wrapT": 10497
    }
  ],
  "scene": 0,
  "scenes": [
    {
      "name": "Sketchfab_Scene",
      "nodes": [
        0
      ]
    }
  ],
  "textures": [
    {
      "sampler": 0,
      "source": 0
    },
    {
      "sampler": 0,
      "source": 1
    },
    {
      "sampler": 0,
      "source": 2
    },
    {
      "sampler": 0,
      "source": 3
    }
  ]
}
