{
  "accessors": [
    {
      "bufferView": 2,
      "componentType": 5126,
      "count": 817,
      "max": [
        0.016074679791927338,
        0.05463813245296478,
        0.08859048783779144
      ],
      "min": [
        -0.014322918839752674,
        -0.04529816284775734,
        -0.03637614846229553
      ],
      "type": "VEC3"
    },
    {
      "bufferView": 2,
      "byteOffset": 9804,
      "componentType": 5126,
      "count": 817,
      "max": [
        1.0,
        1.0,
        0.9703486561775208
      ],
      "min": [
        -1.0,
        -0.9956840872764587,
        -0.9995125532150269
      ],
      "type": "VEC3"
    },
    {
      "bufferView": 3,
      "componentType": 5126,
      "count": 817,
      "max": [
        0.9999851584434509,
        1.0,
        0.987355649471283,
        1.0
      ],
      "min": [
        -0.9999985694885254,
        -0.9990025162696838,
        -1.0,
        -1.0
      ],
      "type": "VEC4"
    },
    {
      "bufferView": 1,
      "componentType": 5126,
      "count": 817,
      "max": [
        0.810498833656311,
        0.9959933161735535
      ],
      "min": [
        0.0071332016959786415,
        0.19783250987529755
      ],
      "type": "VEC2"
    },
    {
      "bufferView": 0,
      "componentType": 5125,
      "count": 3195,
      "type": "SCALAR"
    },
    {
      "bufferView": 2,
      "byteOffset": 19608,
      "componentType": 5126,
      "count": 52,
      "max": [
        0.0027901765424758196,
        0.01049523614346981,
        0.008101562969386578
      ],
      "min": [
        -0.0027901765424758196,
        -0.010546164587140083,
        -0.008429772220551968
      ],
      "type": "VEC3"
    },
    {
      "bufferView": 2,
      "byteOffset": 20232,
      "componentType": 5126,
      "count": 52,
      "max": [
        1.0,
        0.4029487073421478,
        0.9131003618240356
      ],
      "min": [
        -1.0,
        -0.8903886675834656,
        0.0
      ],
      "type": "VEC3"
    },
    {
      "bufferView": 3,
      "byteOffset": 13072,
      "componentType": 5126,
      "count": 52,
      "max": [
        0.9735673069953918,
        0.3282233774662018,
        0.9996424317359924,
        1.0
      ],
      "min": [
        -0.08633673191070557,
        -0.5211187601089478,
        -1.0,
        1.0
      ],
      "type": "VEC4"
    },
    {
      "bufferView": 1,
      "byteOffset": 6536,
      "componentType": 5126,
      "count": 52,
      "max": [
        0.24556027352809906,
        0.4339321255683899
      ],
      "min": [
        0.15761424601078033,
        0.33403775095939636
      ],
      "type": "VEC2"
    },
    {
      "bufferView": 0,
      "byteOffset": 12780,
      "componentType": 5125,
      "count": 216,
      "type": "SCALAR"
    },
    {
      "bufferView": 2,
      "byteOffset": 20856,
      "componentType": 5126,
      "count": 54,
      "max": [
        0.002950304886326194,
        0.009693198837339878,
        0.0012203588848933578
      ],
      "min": [
        -0.002950304886326194,
        -0.013980910181999207,
        -0.0010807046201080084
      ],
      "type": "VEC3"
    },
    {
      "bufferView": 2,
      "byteOffset": 21504,
      "componentType": 5126,
      "count": 54,
      "max": [
        0.731604278087616,
        0.731604278087616,
        0.9006940126419067
      ],
      "min": [
        -0.731604278087616,
        -0.5773502588272095,
        -0.9010317921638489
      ],
      "type": "VEC3"
    },
    {
      "bufferView": 3,
      "byteOffset": 13904,
      "componentType": 5126,
      "count": 54,
      "max": [
        0.980635404586792,
        0.8997385501861572,
        0.8143799304962158,
        1.0
      ],
      "min": [
        -0.9808343052864075,
        -0.8835942149162292,
        -0.8100309371948242,
        1.0
      ],
      "type": "VEC4"
    },
    {
      "bufferView": 1,
      "byteOffset": 6952,
      "componentType": 5126,
      "count": 54,
      "max": [
        0.6937844157218933,
        0.8158776164054871
      ],
      "min": [
        0.6370305418968201,
        0.719968855381012
      ],
      "type": "VEC2"
    },
    {
      "bufferView": 0,
      "byteOffset": 13644,
      "componentType": 5125,
      "count": 204,
      "type": "SCALAR"
    },
    {
      "bufferView": 2,
      "byteOffset": 22152,
      "componentType": 5126,
      "count": 892,
      "max": [
        0.012535812333226204,
        0.011421244591474533,
        0.07477951049804688
      ],
      "min": [
        -0.012509152293205261,
        -0.014028338715434074,
        -0.07505439966917038
      ],
      "type": "VEC3"
    },
    {
      "bufferView": 2,
      "byteOffset": 32856,
      "componentType": 5126,
      "count": 892,
      "max": [
        0.9997756481170654,
        0.9939863681793213,
        0.9901314973831177
      ],
      "min": [
        -1.0,
        -0.9986516237258911,
        -0.9901314973831177
      ],
      "type": "VEC3"
    },
    {
      "bufferView": 3,
      "byteOffset": 14768,
      "componentType": 5126,
      "count": 892,
      "max": [
        0.9997941255569458,
        0.990543007850647,
        1.0,
        1.0
      ],
      "min": [
        -0.9958423376083374,
        -0.9974769949913025,
        -1.0,
        -1.0
      ],
      "type": "VEC4"
    },
    {
      "bufferView": 1,
      "byteOffset": 7384,
      "componentType": 5126,
      "count": 892,
      "max": [
        0.9951292276382446,
        0.9950878620147705
      ],
      "min": [
        0.6418572068214417,
        0.013872014358639717
      ],
      "type": "VEC2"
    },
    {
      "bufferView": 0,
      "byteOffset": 14460,
      "componentType": 5125,
      "count": 3510,
      "type": "SCALAR"
    },
    {
      "bufferView": 2,
      "byteOffset": 43560,
      "componentType": 5126,
      "count": 154,
      "max": [
        0.008158799260854721,
        0.007357744500041008,
        0.07746263593435287
      ],
      "min": [
        -0.008158659562468529,
        -0.014430038630962372,
        -0.020302163437008858
      ],
      "type": "VEC3"
    },
    {
      "bufferView": 2,
      "byteOffset": 45408,
      "componentType": 5126,
      "count": 154,
      "max": [
        0.9286471605300903,
        0.9286471605300903,
        0.9417531490325928
      ],
      "min": [
        -0.9286471605300903,
        -0.9286471605300903,
        -0.7537755966186523
      ],
      "type": "VEC3"
    },
    {
      "bufferView": 3,
      "byteOffset": 29040,
      "componentType": 5126,
      "count": 154,
      "max": [
        0.941572368144989,
        0.9411917924880981,
        0.914056122303009,
        1.0
      ],
      "min": [
        -0.9354889988899231,
        -0.7596461176872253,
        -0.9702764749526978,
        1.0
      ],
      "type": "VEC4"
    },
    {
      "bufferView": 1,
      "byteOffset": 14520,
      "componentType": 5126,
      "count": 154,
      "max": [
        0.7294092178344727,
        0.5187925100326538
      ],
      "min": [
        0.010064534842967987,
        0.0077743008732795715
      ],
      "type": "VEC2"
    },
    {
      "bufferView": 0,
      "byteOffset": 28500,
      "componentType": 5125,
      "count": 636,
      "type": "SCALAR"
    },
    {
      "bufferView": 2,
      "byteOffset": 47256,
      "componentType": 5126,
      "count": 56,
      "max": [
        0.0028487700037658215,
        0.002909504109993577,
        0.007925803773105145
      ],
      "min": [
        -0.0008258635643869638,
        -0.009607531130313873,
        -0.002909504109993577
      ],
      "type": "VEC3"
    },
    {
      "bufferView": 2,
      "byteOffset": 47928,
      "componentType": 5126,
      "count": 56,
      "max": [
        0.7319515347480774,
        0.7545210719108582,
        0.8030163049697876
      ],
      "min": [
        -0.7004729509353638,
        -0.7586483359336853,
        -0.9197775721549988
      ],
      "type": "VEC3"
    },
    {
      "bufferView": 3,
      "byteOffset": 31504,
      "componentType": 5126,
      "count": 56,
      "max": [
        0.7568477392196655,
        0.7356359958648682,
        0.905615508556366,
        1.0
      ],
      "min": [
        -0.7224137187004089,
        -0.9691402912139893,
        -0.830385148525238,
        1.0
      ],
      "type": "VEC4"
    },
    {
      "bufferView": 1,
      "byteOffset": 15752,
      "componentType": 5126,
      "count": 56,
      "max": [
        0.1324658840894699,
        0.48527422547340393
      ],
      "min": [
        0.046608179807662964,
        0.4110555946826935
      ],
      "type": "VEC2"
    },
    {
      "bufferView": 0,
      "byteOffset": 31044,
      "componentType": 5125,
      "count": 240,
      "type": "SCALAR"
    },
    {
      "bufferView": 2,
      "byteOffset": 48600,
      "componentType": 5126,
      "count": 170,
      "max": [
        0.0076774246990680695,
        0.05134917050600052,
        0.0269762072712183
      ],
      "min": [
        -0.007677425630390644,
        -0.04374299198389053,
        -0.02577926404774189
      ],
      "type": "VEC3"
    },
    {
      "bufferView": 2,
      "byteOffset": 50640,
      "componentType": 5126,
      "count": 170,
      "max": [
        0.9999979734420776,
        0.9999486207962036,
        0.8305749893188477
      ],
      "min": [
        -0.9999979734420776,
        -0.711827278137207,
        -0.9836646318435669
      ],
      "type": "VEC3"
    },
    {
      "bufferView": 3,
      "byteOffset": 32400,
      "componentType": 5126,
      "count": 170,
      "max": [
        0.9999446868896484,
        0.9850221872329712,
        0.9996928572654724,
        1.0
      ],
      "min": [
        -0.9999502897262573,
        -0.9829410314559937,
        -0.9958008527755737,
        1.0
      ],
      "type": "VEC4"
    },
    {
      "bufferView": 1,
      "byteOffset": 16200,
      "componentType": 5126,
      "count": 170,
      "max": [
        0.7729772329330444,
        0.3856528699398041
      ],
      "min": [
        0.419034868478775,
        0.0022762566804885864
      ],
      "type": "VEC2"
    },
    {
      "bufferView": 0,
      "byteOffset": 32004,
      "componentType": 5125,
      "count": 540,
      "type": "SCALAR"
    }
  ],
  "asset": {
    "extras": {
      "author": "creationwasteland (https://sketchfab.com/creationwasteland)",
      "license": "CC-BY-4.0 (http://creativecommons.org/licenses/by/4.0/)",
      "source": "https://sketchfab.com/3d-models/hamada-765mm-handgun-811fbfc03f6147f3a6a7edf264b88cd5",
      "title": "Hamada 7.65mm Handgun"
    },
    "generator": "Sketchfab-12.65.0",
    "version": "2.0"
  },
  "bufferViews": [
    {
      "buffer": 0,
      "byteLength": 34164,
      "name": "floatBufferViews",
      "target": 34963
    },
    {
      "buffer": 0,
      "byteLength": 17560,
      "byteOffset": 34164,
      "byteStride": 8,
      "name": "floatBufferViews",
      "target": 34962
    },
    {
      "buffer": 0,
      "byteLength": 52680,
      "byteOffset": 51724,
      "byteStride": 12,
      "name": "floatBufferViews",
      "target": 34962
    },
    {
      "buffer": 0,
      "byteLength": 35120,
      "byteOffset": 104404,
      "byteStride": 16,
      "name": "floatBufferViews",
      "target": 34962
    }
  ],
  "buffers": [
    {
      "byteLength": 139524,
      "uri": "scene.bin"
    }
  ],
  "images": [
    {
      "uri": "textures/Scene_-_Root_baseColor.png"
    },
    {
      "uri": "textures/Scene_-_Root_metallicRoughness.png"
    },
    {
      "uri": "textures/Scene_-_Root_normal.png"
    }
  ],
  "materials": [
    {
      "name": "Scene_-_Root",
      "normalTexture": {
        "index": 2
      },
      "occlusionTexture": {
        "index": 1
      },
      "pbrMetallicRoughness": {
        "baseColorTexture": {
          "index": 0
        },
        "metallicRoughnessTexture": {
          "index": 1
        }
      }
    }
  ],
  "meshes": [
    {
      "name": "body__0",
      "primitives": [
        {
          "attributes": {
            "NORMAL": 1,
            "POSITION": 0,
            "TANGENT": 2,
            "TEXCOORD_0": 3
          },
          "indices": 4,
          "material": 0,
          "mode": 4
        }
      ]
    },
    {
      "name": "trigger_low.001__0",
      "primitives": [
        {
          "attributes": {
            "NORMAL": 6,
            "POSITION": 5,
            "TANGENT": 7,
            "TEXCOORD_0": 8
          },
          "indices": 9,
          "material": 0,
          "mode": 4
        }
      ]
    },
    {
      "name": "disPin__0",
      "primitives": [
        {
          "attributes": {
            "NORMAL": 11,
            "POSITION": 10,
            "TANGENT": 12,
            "TEXCOORD_0": 13
          },
          "indices": 14,
          "material": 0,
          "mode": 4
        }
      ]
    },
    {
      "name": "slide__0",
      "primitives": [
        {
          "attributes": {
            "NORMAL": 16,
            "POSITION": 15,
            "TANGENT": 17,
            "TEXCOORD_0": 18
          },
          "indices": 19,
          "material": 0,
          "mode": 4
        }
      ]
    },
    {
      "name": "barrel__0",
      "primitives": [
        {
          "attributes": {
            "NORMAL": 21,
            "POSITION": 20,
            "TANGENT": 22,
            "TEXCOORD_0": 23
          },
          "indices": 24,
          "material": 0,
          "mode": 4
        }
      ]
    },
    {
      "name": "safety__0",
      "primitives": [
        {
          "attributes": {
            "NORMAL": 26,
            "POSITION": 25,
            "TANGENT": 27,
            "TEXCOORD_0": 28
          },
          "indices": 29,
          "material": 0,
          "mode": 4
        }
      ]
    },
    {
      "name": "clip__0",
      "primitives": [
        {
          "attributes": {
            "NORMAL": 31,
            "POSITION": 30,
            "TANGENT": 32,
            "TEXCOORD_0": 33
          },
          "indices": 34,
          "material": 0,
          "mode": 4
        }
      ]
    }
  ],
  "nodes": [
    {
      "children": [
        1
      ],
      "matrix": [
        1.0,
        0.0,
        0.0,
        0.0,
        0.0,
        2.220446049250313e-16,
        -1.0,
        0.0,
        0.0,
        1.0,
        2.220446049250313e-16,
        0.0,
        0.0,
        0.0,
        0.0,
        1.0
      ],
      "name": "Sketchfab_model"
    },
    {
      "children": [
        2
      ],
      "matrix": [
        1.0,
        0.0,
        0.0,
        0.0,
        0.0,
        0.0,
        1.0,
        0.0,
        0.0,
        -1.0,
        0.0,
        0.0,
        0.0,
        0.0,
        0.0,
        1.0
      ],
      "name": "b010a37b78584f2ea0d7f201ec784eda.fbx"
    },
    {
      "children": [
        3
      ],
      "name": "RootNode"
    },
    {
      "children": [
        4,
        5,
        7,
        9,
        11,
        13,
        15
      ],
      "matrix": [
        1.0,
        0.0,
        0.0,
        0.0,
        0.0,
        0.999999999999999,
        4.371138828673792e-08,
        0.0,
        0.0,
        -4.371138828673792e-08,
        0.999999999999999,
        0.0,
        -0.00013314280658960342,
        -0.010590557008981705,
        -0.03882579877972603,
        1.0
      ],
      "name": "body"
    },
    {
      "mesh": 0,
      "name": "body__0"
    },
    {
      "children": [
        6
      ],
      "matrix": [
        1.0,
        0.0,
        0.0,
        0.0,
        0.0,
        1.0,
        6.61744490042422e-24,
        0.0,
        0.0,
        -6.61744490042422e-24,
        1.0,
        0.0,
        0.00013314280658960342,
        0.02643156610429287,
        0.035599641501903534,
        1.0
      ],
      "name": "trigger_low.001"
    },
    {
      "mesh": 1,
      "name": "trigger_low.001__0"
    },
    {
      "children": [
        8
      ],
      "matrix": [
        1.0,
        0.0,
        0.0,
        0.0,
        0.0,
        1.0,
        6.61744490042422e-24,
        0.0,
        0.0,
        -6.61744490042422e-24,
        1.0,
        0.0,
        0.00013314280658960342,
        0.04914616793394089,
        -0.03622022643685341,
        1.0
      ],
      "name": "disPin"
    },
    {
      "mesh": 2,
      "name": "disPin__0"
    },
    {
      "children": [
        10
      ],
      "matrix": [
        1.0,
        0.0,
        0.0,
        0.0,
        0.0,
        1.0,
        6.61744490042422e-24,
        0.0,
        0.0,
        -6.61744490042422e-24,
        1.0,
        0.0,
        0.00013314280658960342,
        0.05794329196214676,
        0.03882579505443573,
        1.0
      ],
      "name": "slide"
    },
    {
      "mesh": 3,
      "name": "slide__0"
    },
    {
      "children": [
        12
      ],
      "matrix": [
        1.0,
        0.0,
        0.0,
        0.0,
        0.0,
        1.0,
        6.61744490042422e-24,
        0.0,
        0.0,
        -6.61744490042422e-24,
        1.0,
        0.0,
        0.00013314280658960342,
        0.057891398668289185,
        0.03882579505443573,
        1.0
      ],
      "name": "barrel"
    },
    {
      "mesh": 4,
      "name": "barrel__0"
    },
    {
      "children": [
        14
      ],
      "matrix": [
        1.0,
        0.0,
        0.0,
        0.0,
        0.0,
        1.0,
        6.61744490042422e-24,
        0.0,
        0.0,
        -6.61744490042422e-24,
        1.0,
        0.0,
        0.011596609838306904,
        0.03965571150183678,
        -0.01907194033265114,
        1.0
      ],
      "name": "safety"
    },
    {
      "mesh": 5,
      "name": "safety__0"
    },
    {
      "children": [
        16
      ],
      "matrix": [
        1.0,
        0.0,
        0.0,
        0.0,
        0.0,
        1.0,
        6.61744490042422e-24,
        0.0,
        0.0,
        -6.61744490042422e-24,
        1.0,
        0.0,
        0.0001331426901742816,
        -0.0026515312492847443,
        -0.0011006668210029602,
        1.0
      ],
      "name": "clip"
    },
    {
      "mesh": 6,
      "name": "clip__0"
    }
  ],
  "samplers": [
    {
      "magFilter": 9729,
      "minFilter": 9987,
      "wrapS": 10497,
      "wrapT": 10497
    }
  ],
  "scene": 0,
  "scenes": [
    {
      "name": "Sketchfab_Scene",
      "nodes": [
        0
      ]
    }
  ],
  "textures": [
    {
      "sampler": 0,
      "source": 0
    },
    {
      "sampler": 0,
      "source": 1
    },
    {
      "sampler": 0,
      "source": 2
    }
  ]
}
