{
  "accessors": [
    {
      "bufferView": 2,
      "componentType": 5126,
      "count": 9241,
      "max": [
        3.7505970001220703,
        0.19236600399017334,
        0.14399799704551697
      ],
      "min": [
        -4.310929775238037,
        -0.19225800037384033,
        -1.277400016784668
      ],
      "type": "VEC3"
    },
    {
      "bufferView": 2,
      "byteOffset": 110892,
      "componentType": 5126,
      "count": 9241,
      "max": [
        1.0,
        1.0,
        1.0
      ],
      "min": [
        -1.0,
        -1.0,
        -1.0
      ],
      "type": "VEC3"
    },
    {
      "bufferView": 3,
      "componentType": 5126,
      "count": 9241,
      "max": [
        1.0,
        1.0,
        1.0,
        1.0
      ],
      "min": [
        -1.0,
        -1.0,
        -1.0,
        -1.0
      ],
      "type": "VEC4"
    },
    {
      "bufferView": 1,
      "componentType": 5126,
      "count": 9241,
      "max": [
        1.9972920417785645,
        0.9971740245819092
      ],
      "min": [
        0.0010629999451339245,
        0.0010629999451339245
      ],
      "type": "VEC2"
    },
    {
      "bufferView": 0,
      "componentType": 5125,
      "count": 28314,
      "type": "SCALAR"
    },
    {
      "bufferView": 2,
      "byteOffset": 221784,
      "componentType": 5126,
      "count": 7723,
      "max": [
        3.86348295211792,
        0.18943999707698822,
        0.13139699399471283
      ],
      "min": [
        -4.120851993560791,
        -0.30945900082588196,
        -1.2911089658737183
      ],
      "type": "VEC3"
    },
    {
      "bufferView": 2,
      "byteOffset": 314460,
      "componentType": 5126,
      "count": 7723,
      "max": [
        1.0,
        1.0,
        1.0
      ],
      "min": [
        -1.0,
        -1.0,
        -1.0
      ],
      "type": "VEC3"
    },
    {
      "bufferView": 3,
      "byteOffset": 147856,
      "componentType": 5126,
      "count": 7723,
      "max": [
        1.0,
        1.0,
        1.0,
        1.0
      ],
      "min": [
        -1.0,
        -1.0,
        -1.0,
        -1.0
      ],
      "type": "VEC4"
    },
    {
      "bufferView": 1,
      "byteOffset": 73928,
      "componentType": 5126,
      "count": 7723,
      "max": [
        1.997323989868164,
        0.9972919821739197
      ],
      "min": [
        0.0010629999451339245,
        0.0010629999451339245
      ],
      "type": "VEC2"
    },
    {
      "bufferView": 0,
      "byteOffset": 113256,
      "componentType": 5125,
      "count": 25743,
      "type": "SCALAR"
    }
  ],
  "asset": {
    "extras": {
      "author": "Artem Goyko (https://sketchfab.com/Artem.Goyko)",
      "license": "CC-BY-4.0 (http://creativecommons.org/licenses/by/4.0/)",
      "source": "https://sketchfab.com/3d-models/vss-vintorez-18e1f60286d346728f650984f4ae70aa",
      "title": "VSS Vintorez"
    },
    "generator": "Sketchfab-12.68.0",
    "version": "2.0"
  },
  "bufferViews": [
    {
      "buffer": 0,
      "byteLength": 216228,
      "name": "floatBufferViews",
      "target": 34963
    },
    {
      "buffer": 0,
      "byteLength": 135712,
      "byteOffset": 216228,
      "byteStride": 8,
      "name": "floatBufferViews",
      "target": 34962
    },
    {
      "buffer": 0,
      "byteLength": 407136,
      "byteOffset": 351940,
      "byteStride": 12,
      "name": "floatBufferViews",
      "target": 34962
    },
    {
      "buffer": 0,
      "byteLength": 271424,
      "byteOffset": 759076,
      "byteStride": 16,
      "name": "floatBufferViews",
      "target": 34962
    }
  ],
  "buffers": [
    {
      "byteLength": 1030500,
      "uri": "scene.bin"
    }
  ],
  "images": [
    {
      "uri": "textures/None_baseColor.png"
    },
    {
      "uri": "textures/None_metallicRoughness.png"
    },
    {
      "uri": "textures/None_normal.png"
    }
  ],
  "materials": [
    {
      "doubleSided": true,
      "name": "None",
      "normalTexture": {
        "index": 2
      },
      "occlusionTexture": {
        "index": 1
      },
      "pbrMetallicRoughness": {
        "baseColorTexture": {
          "index": 0
        },
        "metallicRoughnessTexture": {
          "index": 1
        }
      }
    }
  ],
  "meshes": [
    {
      "name": "Object_0",
      "primitives": [
        {
          "attributes": {
            "NORMAL": 1,
            "POSITION": 0,
            "TANGENT": 2,
            "TEXCOORD_0": 3
          },
          "indices": 4,
          "material": 0,
          "mode": 4
        }
      ]
    },
    {
      "name": "Object_1",
      "primitives": [
        {
          "attributes": {
            "NORMAL": 6,
            "POSITION": 5,
            "TANGENT": 7,
            "TEXCOORD_0": 8
          },
          "indices": 9,
          "material": 0,
          "mode": 4
        }
      ]
    }
  ],
  "nodes": [
    {
      "children": [
        1
      ],
      "matrix": [
        1.0,
        0.0,
        0.0,
        0.0,
        0.0,
        2.220446049250313e-16,
        -1.0,
        0.0,
        0.0,
        1.0,
        2.220446049250313e-16,
        0.0,
        0.0,
        0.0,
        0.0,
        1.0
      ],
      "name": "Sketchfab_model"
    },
    {
      "children": [
        2,
        3
      ],
      "name": "VSS Vintorez_low_02.obj.cleaner.materialmerger.gles"
    },
    {
      "mesh": 0,
      "name": "Object_2"
    },
    {
      "mesh": 1,
      "name": "Object_3"
    }
  ],
  "samplers": [
    {
      "magFilter": 9729,
      "minFilter": 9987,
      "wrapS": 10497,
      "wrapT": 10497
    }
  ],
  "scene": 0,
  "scenes": [
    {
      "name": "Sketchfab_Scene",
      "nodes": [
        0
      ]
    }
  ],
  "textures": [
    {
      "sampler": 0,
      "source": 0
    },
    {
      "sampler": 0,
      "source": 1
    },
    {
      "sampler": 0,
      "source": 2
    }
  ]
}
